<?xml version="1.0" encoding="UTF-8" standalone="no"?>
<!DOCTYPE svg PUBLIC "-//W3C//DTD SVG 1.1//EN"
 "http://www.w3.org/Graphics/SVG/1.1/DTD/svg11.dtd">
<!-- Generated by graphviz version 2.40.1 (20161225.0304)
 -->
<!-- Title: G Pages: 1 -->
<svg width="303pt" height="275pt"
 viewBox="0.00 0.00 302.89 275.22" xmlns="http://www.w3.org/2000/svg" xmlns:xlink="http://www.w3.org/1999/xlink">
<g id="graph0" class="graph" transform="scale(1 1) rotate(0) translate(4 271.2214)">
<title>G</title>
<polygon fill="#ffffff" stroke="transparent" points="-4,4 -4,-271.2214 298.8928,-271.2214 298.8928,4 -4,4"/>
<!-- e -->
<g id="node1" class="node">
<title>e</title>
<ellipse fill="none" stroke="#000000" cx="53.6509" cy="-225.9263" rx="53.8022" ry="41.0911"/>
<text text-anchor="middle" x="53.6509" y="-238.5263" font-family="Times,serif" font-size="14.00" fill="#000000">sources of</text>
<text text-anchor="middle" x="53.6509" y="-221.7263" font-family="Times,serif" font-size="14.00" fill="#000000">exogenous</text>
<text text-anchor="middle" x="53.6509" y="-204.9263" font-family="Times,serif" font-size="14.00" fill="#000000">variation</text>
</g>
<!-- x -->
<g id="node2" class="node">
<title>x</title>
<ellipse fill="none" stroke="#000000" cx="91.6509" cy="-118.2156" rx="27" ry="18"/>
<text text-anchor="middle" x="91.6509" y="-114.0156" font-family="Times,serif" font-size="14.00" fill="#000000">x1</text>
</g>
<!-- e&#45;&gt;x -->
<g id="edge1" class="edge">
<title>e&#45;&gt;x</title>
<path fill="none" stroke="#000000" d="M67.8007,-185.8188C72.5485,-172.3612 77.7294,-157.6761 82.0458,-145.4413"/>
<polygon fill="#000000" stroke="#000000" points="85.4133,-146.4159 85.4397,-135.8211 78.8121,-144.0869 85.4133,-146.4159"/>
</g>
<!-- y -->
<g id="node3" class="node">
<title>y</title>
<ellipse fill="none" stroke="#000000" cx="118.6509" cy="-18" rx="27" ry="18"/>
<text text-anchor="middle" x="118.6509" y="-13.8" font-family="Times,serif" font-size="14.00" fill="#000000">y</text>
</g>
<!-- x&#45;&gt;y -->
<g id="edge2" class="edge">
<title>x&#45;&gt;y</title>
<path fill="none" stroke="#000000" d="M93.3735,-100.2123C94.9257,-87.1781 97.6948,-69.246 102.3311,-54 103.2894,-50.8486 104.4621,-47.6134 105.7351,-44.4365"/>
<polygon fill="#000000" stroke="#000000" points="108.9633,-45.7896 109.7409,-35.2233 102.5438,-42.9985 108.9633,-45.7896"/>
<text text-anchor="middle" x="117.8108" y="-58.2" font-family="Times,serif" font-size="14.00" fill="#000000">beta1</text>
</g>
<!-- c -->
<g id="node4" class="node">
<title>c</title>
<ellipse fill="none" stroke="#000000" cx="185.6509" cy="-225.9263" rx="60.4849" ry="29.3315"/>
<text text-anchor="middle" x="185.6509" y="-230.1263" font-family="Times,serif" font-size="14.00" fill="#000000">confounders</text>
<text text-anchor="middle" x="185.6509" y="-213.3263" font-family="Times,serif" font-size="14.00" fill="#000000">(here x2)</text>
</g>
<!-- c&#45;&gt;x -->
<g id="edge3" class="edge">
<title>c&#45;&gt;x</title>
<path fill="none" stroke="#000000" d="M161.2235,-198.9044C152.1866,-188.8274 141.895,-177.256 132.6509,-166.6313 125.6752,-158.6139 118.1338,-149.7625 111.4439,-141.8447"/>
<polygon fill="#000000" stroke="#000000" points="113.9595,-139.3985 104.8399,-134.0055 108.606,-143.9084 113.9595,-139.3985"/>
</g>
<!-- c&#45;&gt;y -->
<g id="edge4" class="edge">
<title>c&#45;&gt;y</title>
<path fill="none" stroke="#000000" d="M177.2833,-196.5144C167.3353,-162.1133 149.9006,-103.5575 132.6509,-54 131.6258,-51.055 130.5112,-47.9921 129.3734,-44.9514"/>
<polygon fill="#000000" stroke="#000000" points="132.5912,-43.567 125.7412,-35.4844 126.0557,-46.0746 132.5912,-43.567"/>
</g>
<!-- p -->
<g id="node5" class="node">
<title>p</title>
<ellipse fill="none" stroke="#000000" cx="234.6509" cy="-118.2156" rx="60.4849" ry="29.3315"/>
<text text-anchor="middle" x="234.6509" y="-122.4156" font-family="Times,serif" font-size="14.00" fill="#000000">proxies for</text>
<text text-anchor="middle" x="234.6509" y="-105.6156" font-family="Times,serif" font-size="14.00" fill="#000000">confounders</text>
</g>
<!-- c&#45;&gt;p -->
<g id="edge5" class="edge">
<title>c&#45;&gt;p</title>
<path fill="none" stroke="#000000" stroke-dasharray="5,2" d="M203.0611,-187.6555C207.656,-177.5551 212.615,-166.6544 217.2114,-156.5506"/>
<polygon fill="#000000" stroke="#000000" points="199.7371,-186.5101 198.782,-197.0618 206.1087,-189.4088 199.7371,-186.5101"/>
<polygon fill="#000000" stroke="#000000" points="220.5284,-157.7115 221.4835,-147.1598 214.1568,-154.8129 220.5284,-157.7115"/>
</g>
</g>
</svg>

