<?xml version="1.0" encoding="UTF-8" standalone="no"?>
<!DOCTYPE svg PUBLIC "-//W3C//DTD SVG 1.1//EN"
 "http://www.w3.org/Graphics/SVG/1.1/DTD/svg11.dtd">
<!-- Generated by graphviz version 2.40.1 (20161225.0304)
 -->
<!-- Title: G Pages: 1 -->
<svg width="256pt" height="235pt"
 viewBox="0.00 0.00 255.57 234.59" xmlns="http://www.w3.org/2000/svg" xmlns:xlink="http://www.w3.org/1999/xlink">
<g id="graph0" class="graph" transform="scale(1 1) rotate(0) translate(4 230.5901)">
<title>G</title>
<polygon fill="#ffffff" stroke="transparent" points="-4,4 -4,-230.5901 251.5703,-230.5901 251.5703,4 -4,4"/>
<!-- e -->
<g id="node1" class="node">
<title>e</title>
<ellipse fill="none" stroke="#000000" cx="53.6509" cy="-185.295" rx="53.8022" ry="41.0911"/>
<text text-anchor="middle" x="53.6509" y="-197.895" font-family="Times,serif" font-size="14.00" fill="#000000">Sources of</text>
<text text-anchor="middle" x="53.6509" y="-181.095" font-family="Times,serif" font-size="14.00" fill="#000000">exogenous</text>
<text text-anchor="middle" x="53.6509" y="-164.295" font-family="Times,serif" font-size="14.00" fill="#000000">variation</text>
</g>
<!-- d -->
<g id="node2" class="node">
<title>d</title>
<ellipse fill="none" stroke="#000000" cx="131.6509" cy="-90" rx="27" ry="18"/>
<text text-anchor="middle" x="131.6509" y="-85.8" font-family="Times,serif" font-size="14.00" fill="#000000">d</text>
</g>
<!-- e&#45;&gt;d -->
<g id="edge1" class="edge">
<title>e&#45;&gt;d</title>
<path fill="none" stroke="#000000" d="M82.2523,-150.3518C92.1614,-138.2455 103.0367,-124.9589 112.0546,-113.9414"/>
<polygon fill="#000000" stroke="#000000" points="114.9163,-115.9709 118.5418,-106.0157 109.4995,-111.5372 114.9163,-115.9709"/>
</g>
<!-- y -->
<g id="node3" class="node">
<title>y</title>
<ellipse fill="none" stroke="#000000" cx="158.6509" cy="-18" rx="27" ry="18"/>
<text text-anchor="middle" x="158.6509" y="-13.8" font-family="Times,serif" font-size="14.00" fill="#000000">y</text>
</g>
<!-- d&#45;&gt;y -->
<g id="edge2" class="edge">
<title>d&#45;&gt;y</title>
<path fill="none" stroke="#000000" d="M138.325,-72.2022C141.3985,-64.0064 145.1125,-54.1024 148.5204,-45.0145"/>
<polygon fill="#000000" stroke="#000000" points="151.8193,-46.1853 152.0535,-35.593 145.265,-43.7274 151.8193,-46.1853"/>
</g>
<!-- x -->
<g id="node4" class="node">
<title>x</title>
<ellipse fill="none" stroke="#000000" cx="186.6509" cy="-185.295" rx="60.839" ry="18"/>
<text text-anchor="middle" x="186.6509" y="-181.095" font-family="Times,serif" font-size="14.00" fill="#000000">Confounders</text>
</g>
<!-- x&#45;&gt;d -->
<g id="edge3" class="edge">
<title>x&#45;&gt;d</title>
<path fill="none" stroke="#000000" d="M176.3058,-167.3708C167.9298,-152.8583 156.0187,-132.2206 146.6045,-115.9092"/>
<polygon fill="#000000" stroke="#000000" points="149.4258,-113.7956 141.3957,-106.8842 143.3631,-117.2948 149.4258,-113.7956"/>
</g>
<!-- x&#45;&gt;y -->
<g id="edge4" class="edge">
<title>x&#45;&gt;y</title>
<path fill="none" stroke="#000000" d="M183.6011,-167.0731C178.7071,-137.8326 169.0669,-80.2342 163.3077,-45.8238"/>
<polygon fill="#000000" stroke="#000000" points="166.7573,-45.2313 161.6545,-35.9463 159.8534,-46.3869 166.7573,-45.2313"/>
</g>
</g>
</svg>

