<?xml version="1.0" encoding="UTF-8" standalone="no"?>
<!DOCTYPE svg PUBLIC "-//W3C//DTD SVG 1.1//EN"
 "http://www.w3.org/Graphics/SVG/1.1/DTD/svg11.dtd">
<!-- Generated by graphviz version 2.40.1 (20161225.0304)
 -->
<!-- Title: G Pages: 1 -->
<svg width="298pt" height="258pt"
 viewBox="0.00 0.00 297.90 258.35" xmlns="http://www.w3.org/2000/svg" xmlns:xlink="http://www.w3.org/1999/xlink">
<g id="graph0" class="graph" transform="scale(1 1) rotate(0) translate(4 254.3489)">
<title>G</title>
<polygon fill="#ffffff" stroke="transparent" points="-4,4 -4,-254.3489 293.8955,-254.3489 293.8955,4 -4,4"/>
<!-- e -->
<g id="node1" class="node">
<title>e</title>
<ellipse fill="none" stroke="#000000" cx="73.4459" cy="-197.1744" rx="73.3919" ry="53.3494"/>
<text text-anchor="middle" x="73.4459" y="-218.1744" font-family="Times,serif" font-size="14.00" fill="#000000">Sources of</text>
<text text-anchor="middle" x="73.4459" y="-201.3744" font-family="Times,serif" font-size="14.00" fill="#000000">exogenous</text>
<text text-anchor="middle" x="73.4459" y="-184.5744" font-family="Times,serif" font-size="14.00" fill="#000000">variation</text>
<text text-anchor="middle" x="73.4459" y="-167.7744" font-family="Times,serif" font-size="14.00" fill="#000000">(do not control)</text>
</g>
<!-- d -->
<g id="node2" class="node">
<title>d</title>
<ellipse fill="none" stroke="#000000" cx="172.4459" cy="-90" rx="27" ry="18"/>
<text text-anchor="middle" x="172.4459" y="-85.8" font-family="Times,serif" font-size="14.00" fill="#000000">d</text>
</g>
<!-- e&#45;&gt;d -->
<g id="edge1" class="edge">
<title>e&#45;&gt;d</title>
<path fill="none" stroke="#000000" d="M114.2846,-152.9637C126.9212,-139.2837 140.3352,-124.7621 151.0927,-113.1164"/>
<polygon fill="#000000" stroke="#000000" points="153.8592,-115.2796 158.0736,-105.559 148.7172,-110.5298 153.8592,-115.2796"/>
</g>
<!-- y -->
<g id="node3" class="node">
<title>y</title>
<ellipse fill="none" stroke="#000000" cx="199.4459" cy="-18" rx="27" ry="18"/>
<text text-anchor="middle" x="199.4459" y="-13.8" font-family="Times,serif" font-size="14.00" fill="#000000">y</text>
</g>
<!-- d&#45;&gt;y -->
<g id="edge2" class="edge">
<title>d&#45;&gt;y</title>
<path fill="none" stroke="#000000" d="M179.1201,-72.2022C182.1935,-64.0064 185.9075,-54.1024 189.3155,-45.0145"/>
<polygon fill="#000000" stroke="#000000" points="192.6144,-46.1853 192.8485,-35.593 186.0601,-43.7274 192.6144,-46.1853"/>
<text text-anchor="middle" x="156.4339" y="-47.9451" font-family="Times,serif" font-size="14.00" fill="#000000">alpha</text>
</g>
<!-- x -->
<g id="node4" class="node">
<title>x</title>
<ellipse fill="none" stroke="#000000" cx="227.4459" cy="-197.1744" rx="62.3991" ry="29.3315"/>
<text text-anchor="middle" x="227.4459" y="-201.3744" font-family="Times,serif" font-size="14.00" fill="#000000">Confounders</text>
<text text-anchor="middle" x="227.4459" y="-184.5744" font-family="Times,serif" font-size="14.00" fill="#000000">(control)</text>
</g>
<!-- x&#45;&gt;d -->
<g id="edge3" class="edge">
<title>x&#45;&gt;d</title>
<path fill="none" stroke="#000000" d="M212.7069,-168.4536C204.3801,-152.2278 194.0477,-132.0937 185.935,-116.2851"/>
<polygon fill="#000000" stroke="#000000" points="188.888,-114.3735 181.2083,-107.0747 182.6602,-117.5696 188.888,-114.3735"/>
</g>
<!-- x&#45;&gt;y -->
<g id="edge4" class="edge">
<title>x&#45;&gt;y</title>
<path fill="none" stroke="#000000" d="M223.1128,-167.8173C219.3374,-142.4382 213.6648,-104.7778 208.4459,-72 207.1009,-63.5525 205.5892,-54.3705 204.1943,-46.0144"/>
<polygon fill="#000000" stroke="#000000" points="207.6187,-45.2718 202.5112,-35.9894 200.7153,-46.4309 207.6187,-45.2718"/>
</g>
</g>
</svg>

