<?xml version="1.0" encoding="UTF-8" standalone="no"?>
<!DOCTYPE svg PUBLIC "-//W3C//DTD SVG 1.1//EN"
 "http://www.w3.org/Graphics/SVG/1.1/DTD/svg11.dtd">
<!-- Generated by graphviz version 2.40.1 (20161225.0304)
 -->
<!-- Title: G Pages: 1 -->
<svg width="362pt" height="211pt"
 viewBox="0.00 0.00 361.93 210.83" xmlns="http://www.w3.org/2000/svg" xmlns:xlink="http://www.w3.org/1999/xlink">
<g id="graph0" class="graph" transform="scale(1 1) rotate(0) translate(4 206.8313)">
<title>G</title>
<polygon fill="#ffffff" stroke="transparent" points="-4,4 -4,-206.8313 357.9328,-206.8313 357.9328,4 -4,4"/>
<!-- d -->
<g id="node1" class="node">
<title>d</title>
<ellipse fill="none" stroke="#000000" cx="163.925" cy="-184.8313" rx="29.0318" ry="18"/>
<text text-anchor="middle" x="163.925" y="-180.6313" font-family="Times,serif" font-size="14.00" fill="#000000">Date</text>
</g>
<!-- m -->
<g id="node2" class="node">
<title>m</title>
<ellipse fill="none" stroke="#000000" cx="67.925" cy="-101.4156" rx="67.85" ry="29.3315"/>
<text text-anchor="middle" x="67.925" y="-105.6156" font-family="Times,serif" font-size="14.00" fill="#000000">Movie</text>
<text text-anchor="middle" x="67.925" y="-88.8156" font-family="Times,serif" font-size="14.00" fill="#000000">characteristics</text>
</g>
<!-- d&#45;&gt;m -->
<g id="edge1" class="edge">
<title>d&#45;&gt;m</title>
<path fill="none" stroke="#000000" d="M146.7621,-169.9182C135.4769,-160.1124 120.248,-146.8798 106.1838,-134.6592"/>
<polygon fill="#000000" stroke="#000000" points="108.3668,-131.9194 98.5226,-128.0024 103.7755,-137.2033 108.3668,-131.9194"/>
</g>
<!-- v -->
<g id="node3" class="node">
<title>v</title>
<ellipse fill="none" stroke="#000000" cx="163.925" cy="-18" rx="35.9115" ry="18"/>
<text text-anchor="middle" x="163.925" y="-13.8" font-family="Times,serif" font-size="14.00" fill="#000000">Views</text>
</g>
<!-- d&#45;&gt;v -->
<g id="edge2" class="edge">
<title>d&#45;&gt;v</title>
<path fill="none" stroke="#000000" d="M163.925,-166.6598C163.925,-137.7023 163.925,-80.8557 163.925,-46.4628"/>
<polygon fill="#000000" stroke="#000000" points="167.4251,-46.149 163.925,-36.1491 160.4251,-46.1491 167.4251,-46.149"/>
</g>
<!-- w -->
<g id="node4" class="node">
<title>w</title>
<ellipse fill="none" stroke="#000000" cx="272.925" cy="-101.4156" rx="81.0157" ry="18"/>
<text text-anchor="middle" x="272.925" y="-97.2156" font-family="Times,serif" font-size="14.00" fill="#000000">Weather variables</text>
</g>
<!-- d&#45;&gt;w -->
<g id="edge3" class="edge">
<title>d&#45;&gt;w</title>
<path fill="none" stroke="#000000" d="M182.4153,-170.681C198.7113,-158.2099 222.782,-139.7891 242.0044,-125.0786"/>
<polygon fill="#000000" stroke="#000000" points="244.3644,-127.6799 250.1787,-118.823 240.1102,-122.1209 244.3644,-127.6799"/>
</g>
<!-- m&#45;&gt;v -->
<g id="edge4" class="edge">
<title>m&#45;&gt;v</title>
<path fill="none" stroke="#000000" d="M98.3,-75.0224C111.0973,-63.9026 125.8357,-51.0963 138.0991,-40.4404"/>
<polygon fill="#000000" stroke="#000000" points="140.5024,-42.9889 145.7552,-33.7879 135.9111,-37.7049 140.5024,-42.9889"/>
</g>
<!-- w&#45;&gt;v -->
<g id="edge5" class="edge">
<title>w&#45;&gt;v</title>
<path fill="none" stroke="#000000" d="M250.075,-83.929C233.2296,-71.0376 210.2107,-53.4216 192.2048,-39.642"/>
<polygon fill="#000000" stroke="#000000" points="193.8857,-36.5211 183.8172,-33.2232 189.6315,-42.0801 193.8857,-36.5211"/>
</g>
</g>
</svg>

