<?xml version="1.0" standalone="no"?><!DOCTYPE svg PUBLIC "-//W3C//DTD SVG 1.1//EN" "http://www.w3.org/Graphics/SVG/1.1/DTD/svg11.dtd"><svg xmlns:xlink="http://www.w3.org/1999/xlink" version="1.1" class="highcharts-root" style="font-family:'Helvetica Neue',Helvetica,Arial,sans-serif;font-size:12px;" xmlns="http://www.w3.org/2000/svg" width="746" height="468" viewBox="0 0 746 468"><desc>Created with Highcharts 7.2.0</desc><defs><clipPath id="highcharts-xvo4sw5-4183-"><rect x="0" y="0" width="683" height="371" fill="none"></rect></clipPath><clipPath id="highcharts-xvo4sw5-4706-"><rect x="0" y="0" width="683" height="371" fill="none"></rect></clipPath></defs><rect fill="#ffffff" class="highcharts-background" x="0" y="0" width="746" height="468" rx="0" ry="0"></rect><rect fill="none" class="highcharts-plot-background" x="0" y="40" width="683" height="371"></rect><g class="highcharts-grid highcharts-xaxis-grid" data-z-index="1"><path fill="none" stroke="#EDF3F6" stroke-width="1" data-z-index="1" class="highcharts-grid-line" d="M 120.5 40 L 120.5 411" opacity="1"></path><path fill="none" stroke="#EDF3F6" stroke-width="1" data-z-index="1" class="highcharts-grid-line" d="M 256.5 40 L 256.5 411" opacity="1"></path><path fill="none" stroke="#EDF3F6" stroke-width="1" data-z-index="1" class="highcharts-grid-line" d="M 391.5 40 L 391.5 411" opacity="1"></path><path fill="none" stroke="#EDF3F6" stroke-width="1" data-z-index="1" class="highcharts-grid-line" d="M 527.5 40 L 527.5 411" opacity="1"></path><path fill="none" stroke="#EDF3F6" stroke-width="1" data-z-index="1" class="highcharts-grid-line" d="M 662.5 40 L 662.5 411" opacity="1"></path></g><g class="highcharts-grid highcharts-yaxis-grid" data-z-index="1"><path fill="none" stroke="#E7E7E7" stroke-width="1" data-z-index="1" class="highcharts-grid-line" d="M 0 411.5 L 683 411.5" opacity="1"></path><path fill="none" stroke="#E7E7E7" stroke-width="1" data-z-index="1" class="highcharts-grid-line" d="M 0 349.5 L 683 349.5" opacity="1"></path><path fill="none" stroke="#E7E7E7" stroke-width="1" data-z-index="1" class="highcharts-grid-line" d="M 0 287.5 L 683 287.5" opacity="1"></path><path fill="none" stroke="#E7E7E7" stroke-width="1" data-z-index="1" class="highcharts-grid-line" d="M 0 226.5 L 683 226.5" opacity="1"></path><path fill="none" stroke="#E7E7E7" stroke-width="1" data-z-index="1" class="highcharts-grid-line" d="M 0 164.5 L 683 164.5" opacity="1"></path><path fill="none" stroke="#E7E7E7" stroke-width="1" data-z-index="1" class="highcharts-grid-line" d="M 0 102.5 L 683 102.5" opacity="1"></path><path fill="none" stroke="#E7E7E7" stroke-width="1" data-z-index="1" class="highcharts-grid-line" d="M 0 39.5 L 683 39.5" opacity="1"></path></g><g class="highcharts-grid highcharts-yaxis-grid" data-z-index="1"></g><g class="highcharts-grid highcharts-yaxis-grid" data-z-index="1"></g><rect fill="none" class="highcharts-plot-border" data-z-index="1" x="0" y="40" width="683" height="371"></rect><g class="highcharts-axis highcharts-xaxis" data-z-index="2"><path fill="none" class="highcharts-axis-line" stroke="#ccd6eb" stroke-width="1" data-z-index="7" d="M 0 411.5 L 683 411.5"></path></g><g class="highcharts-axis highcharts-yaxis" data-z-index="2"><path fill="none" class="highcharts-axis-line" data-z-index="7" d="M 703 40 L 703 411"></path></g><g class="highcharts-axis highcharts-yaxis" data-z-index="2"><path fill="none" class="highcharts-axis-line" stroke="#E6E6E6" stroke-width="1" data-z-index="7" d="M -1.5 40 L -1.5 411"></path></g><g class="highcharts-series-group" data-z-index="3"><g data-z-index="90" class="highcharts-series highcharts-series-0 highcharts-line-series " transform="translate(0,40) scale(1 1)" clip-path="url(#highcharts-xvo4sw5-4706-)"><path fill="none" d="M 0 292.1625 L 1.2984790874523 301.3756666666667 L 2.5969581749051 310.4033333333333 L 3.8954372623574 310.3415 L 5.1939163498097 313.6805 L 6.4923954372625 297.66566666666665 L 7.7908745247148 291.91516666666666 L 9.0893536121671 277.6935 L 10.38783269962 263.28633333333335 L 11.686311787072 274.04533333333336 L 12.984790874524 289.009 L 14.283269961977 290.6785 L 15.58174904943 280.2905 L 16.880228136882 270.5208333333333 L 18.178707224335 258.216 L 19.477186311787 261.184 L 20.77566539924 255.1243333333333 L 22.074144486692 242.32483333333334 L 23.372623574144 246.715 L 24.671102661597 254.93883333333335 L 25.969581749049 261.555 L 27.268060836502 264.7085 L 28.566539923955 265.75966666666665 L 29.865019011407 259.76183333333336 L 31.163498098859 266.9963333333333 L 32.461977186312 250.85783333333333 L 33.760456273764 254.44416666666666 L 35.058935361216 227.54666666666668 L 36.357414448669 222.84733333333332 L 37.655893536122 209.55316666666664 L 38.954372623574 209.18216666666666 L 40.252851711027 222.6 L 41.551330798479 213.07766666666666 L 42.849809885932 216.23116666666667 L 44.148288973384 198.48499999999999 L 45.446768060836 191.6215 L 46.745247148289 212.64483333333334 L 48.043726235741 213.26316666666665 L 49.342205323194 227.91766666666666 L 50.640684410647 219.4465 L 51.939163498099 218.33350000000002 L 53.237642585551 229.58716666666666 L 54.536121673004 227.11383333333333 L 55.834600760456 212.33566666666667 L 57.133079847909 219.87933333333334 L 58.431558935361 228.7215 L 59.730038022814 230.51466666666667 L 61.028517110266 237.87283333333332 L 62.326996197719 229.33983333333333 L 63.625475285171 219.13733333333332 L 64.923954372623 208.44016666666667 L 66.222433460076 193.41466666666668 L 67.520912547528 190.0138333333333 L 68.819391634981 183.64499999999998 L 70.117870722434 177.77083333333331 L 71.416349809886 171.77299999999997 L 72.714828897339 160.27199999999996 L 74.013307984791 176.16316666666668 L 75.311787072243 182.9648333333333 L 76.610266159696 191.065 L 77.908745247148 182.0991666666667 L 79.207224334601 170.8455 L 80.505703422053 186.48933333333332 L 81.804182509506 196.13533333333334 L 83.102661596958 202.00949999999997 L 84.401140684411 199.65983333333332 L 85.699619771863 212.3975 L 86.998098859315 209.18216666666666 L 88.296577946768 207.51266666666666 L 89.59505703422 198.54683333333332 L 90.893536121673 213.01583333333332 L 92.192015209126 225.87716666666665 L 93.490494296578 233.11166666666665 L 94.788973384031 224.57866666666666 L 96.087452471483 217.34416666666667 L 97.385931558935 211.40816666666666 L 98.684410646388 214.56166666666667 L 99.98288973384 205.47216666666665 L 101.28136882129 204.85383333333334 L 102.57984790875 210.9135 L 103.8783269962 216.04566666666668 L 105.17680608365 199.35066666666668 L 106.4752851711 200.09266666666667 L 107.77376425856 203.61716666666666 L 109.07224334601 215.61283333333333 L 110.37072243346 212.7685 L 111.66920152091 206.5233333333333 L 112.96768060836 199.84533333333334 L 114.26615969582 188.3443333333333 L 115.56463878327 178.451 L 116.86311787072 163.79649999999998 L 118.16159695817 159.65366666666665 L 119.46007604563 160.33383333333333 L 120.75855513308 166.70266666666663 L 122.05703422053 182.22283333333334 L 123.35551330798 165.34233333333336 L 124.65399239544 112.41299999999995 L 125.95247148289 127.19116666666667 L 127.25095057034 137.57916666666662 L 128.54942965779 110.43433333333331 L 129.84790874525 53.485833333333346 L 131.1463878327 147.8435 L 132.44486692015 147.28699999999998 L 133.7433460076 159.22083333333333 L 135.04182509506 166.1461666666667 L 136.34030418251 155.5108333333333 L 137.63878326996 158.35516666666666 L 138.93726235741 147.16333333333333 L 140.23574144487 150.25499999999997 L 141.53422053232 145.4938333333333 L 142.83269961977 143.8243333333333 L 144.13117870722 152.6665 L 145.42965779468 159.96283333333332 L 146.72813688213 160.45749999999998 L 148.02661596958 151.98633333333333 L 149.32509505703 141.59833333333333 L 150.62357414449 139.80516666666668 L 151.92205323194 152.6665 L 153.22053231939 160.21016666666668 L 154.51901140684 167.56833333333333 L 155.8174904943 176.47233333333332 L 157.11596958175 188.52983333333333 L 158.4144486692 199.04149999999998 L 159.71292775665 197.99033333333333 L 161.01140684411 187.84966666666665 L 162.30988593156 199.35066666666668 L 163.60836501901 195.39333333333335 L 164.90684410646 181.4808333333333 L 166.20532319392 198.2995 L 167.50380228137 194.34216666666666 L 168.80228136882 195.5788333333333 L 170.10076045627 186.48933333333332 L 171.39923954373 183.0885 L 172.69771863118 194.2185 L 173.99619771863 199.969 L 175.29467680608 208.81116666666665 L 176.59315589354 193.3528333333333 L 177.89163498099 160.02466666666666 L 179.19011406844 184.26333333333335 L 180.48859315589 169.05233333333334 L 181.78707224335 180.05866666666665 L 183.0855513308 197.743 L 184.38403041825 198.17583333333334 L 185.6825095057 218.64266666666666 L 186.98098859316 246.9005 L 188.27946768061 247.14783333333332 L 189.57794676806 250.6723333333333 L 190.87642585551 239.4805 L 192.17490494297 248.19899999999998 L 193.47338403042 266.43983333333335 L 194.77186311787 273.36516666666665 L 196.07034220532 259.4526666666667 L 197.36882129278 250.36316666666664 L 198.66730038023 263.781 L 199.96577946768 257.2885 L 201.26425855513 264.21383333333335 L 202.56273764259 260.56566666666663 L 203.86121673004 272.685 L 205.15969581749 265.0795 L 206.45817490494 277.56983333333335 L 207.7566539924 269.96433333333334 L 209.05513307985 276.33316666666667 L 210.3536121673 261.184 L 211.65209125475 254.75333333333333 L 212.95057034221 246.344 L 214.24904942966 254.32049999999998 L 215.54752851711 269.4696666666667 L 216.84600760456 272.685 L 218.14448669202 262.79166666666663 L 219.44296577947 258.71066666666667 L 220.74144486692 261.3695 L 222.03992395437 260.3183333333333 L 223.33840304183 261.555 L 224.63688212928 255.37166666666667 L 225.93536121673 261.184 L 227.23384030418 264.894 L 228.53231939164 259.82366666666667 L 229.83079847909 259.6381666666666 L 231.12927756654 267.3673333333333 L 232.42775665399 264.9558333333333 L 233.72623574144 268.66583333333335 L 235.0247148289 266.3161666666667 L 236.32319391635 271.7575 L 237.6216730038 274.29266666666666 L 238.92015209125 281.27983333333333 L 240.21863117871 278.1263333333334 L 241.51711026616 282.5783333333333 L 242.81558935361 291.4823333333333 L 244.11406844106 289.3181666666667 L 245.41254752852 286.2265 L 246.71102661597 286.8448333333333 L 248.00950570342 300.2008333333333 L 249.30798479087 296.058 L 250.60646387833 297.66566666666665 L 251.90494296578 309.78499999999997 L 253.20342205323 323.57383333333337 L 254.50190114068 307.3735 L 255.80038022814 288.3288333333333 L 257.09885931559 279.98133333333334 L 258.39733840304 302.98333333333335 L 259.69581749049 300.57183333333336 L 260.99429657795 290.7403333333333 L 262.2927756654 305.27116666666666 L 263.59125475285 311.269 L 264.8897338403 321.286 L 266.18821292776 322.08983333333333 L 267.48669201521 329.819 L 268.78517110266 320.173 L 270.08365019011 314.9171666666667 L 271.38212927757 321.1623333333333 L 272.68060836502 311.88733333333334 L 273.97908745247 309.78499999999997 L 275.27756653992 315.22633333333334 L 276.57604562738 300.51 L 277.87452471483 298.16033333333337 L 279.17300380228 302.9215 L 280.47148288973 303.23066666666665 L 281.76996197719 305.333 L 283.06844106464 298.71683333333334 L 284.36692015209 284.557 L 285.66539923954 274.7873333333333 L 286.963878327 270.6445 L 288.26235741445 268.233 L 289.5608365019 248.13716666666664 L 290.85931558935 259.6381666666666 L 292.15779467681 262.42066666666665 L 293.45627376426 261.12216666666666 L 294.75475285171 255.0006666666667 L 296.05323193916 261.4313333333333 L 297.35171102662 272.9323333333333 L 298.65019011407 273.056 L 299.94866920152 255.30983333333333 L 301.24714828897 260.19466666666665 L 302.54562737643 259.8855 L 303.84410646388 250.54866666666666 L 305.14258555133 250.11583333333334 L 306.44106463878 253.14566666666667 L 307.73954372624 235.3995 L 309.03802281369 229.7108333333333 L 310.33650190114 247.76616666666666 L 311.63498098859 240.84083333333334 L 312.93346007605 261.7405 L 314.2319391635 270.8918333333333 L 315.53041825095 257.04116666666664 L 316.8288973384 242.0775 L 318.12737642586 220.374 L 319.42585551331 201.20566666666667 L 320.72433460076 221.67249999999999 L 322.02281368821 206.39966666666666 L 323.32129277567 202.56599999999997 L 324.61977186312 229.7108333333333 L 325.91825095057 221.42516666666666 L 327.21673003802 234.7193333333333 L 328.51520912548 223.1565 L 329.81368821293 243.43783333333332 L 331.11216730038 245.231 L 332.41064638783 257.59766666666667 L 333.70912547529 270.3971666666667 L 335.00760456274 258.0305 L 336.30608365019 246.83866666666665 L 337.60456273764 250.54866666666666 L 338.90304182509 242.634 L 340.20152091255 235.585 L 341.5 231.19483333333332 L 342.79847908745 233.29716666666667 L 344.09695817491 241.08816666666667 L 345.39543726236 230.26733333333334 L 346.69391634981 230.88566666666665 L 347.99239543726 223.96651666666668 L 349.29087452471 232.12233333333333 L 350.58935361217 233.17968333333334 L 351.88783269962 245.7875 L 353.18631178707 246.4058333333333 L 354.48479087453 250.8702 L 355.78326996198 251.7235 L 357.08174904943 245.16916666666665 L 358.38022813688 255.74266666666665 L 359.67870722433 248.57 L 360.97718631179 249.18833333333333 L 362.27566539924 250.9815 L 363.57414448669 261.30766666666665 L 364.87262357414 248.3845 L 366.1711026616 253.9495 L 367.46958174905 254.01133333333334 L 368.7680608365 243.005 L 370.06653992395 254.135 L 371.36501901141 245.84933333333333 L 372.66349809886 249.86849999999998 L 373.96197718631 246.9005 L 375.26045627376 255.8045 L 376.55893536122 247.33333333333331 L 377.85741444867 252.58916666666664 L 379.15589353612 262.668 L 380.45437262357 248.32266666666666 L 381.75285171103 234.1628333333333 L 383.05133079848 241.3355 L 384.34980988593 258.89616666666666 L 385.64828897338 243.5615 L 386.94676806084 261.4313333333333 L 388.24524714829 271.32466666666664 L 389.54372623574 267.92383333333333 L 390.84220532319 250.23950000000002 L 392.14068441065 260.00916666666666 L 393.4391634981 234.96666666666664 L 394.73764258555 235.89416666666665 L 396.036121673 216.1075 L 397.33460076046 256.85566666666665 L 398.63307984791 273.056 L 399.93155893536 274.6636666666667 L 401.23003802281 270.5208333333333 L 402.52851711027 266.1925 L 403.82699619772 263.9046666666667 L 405.12547528517 266.6253333333333 L 406.42395437262 272.62316666666663 L 407.72243346008 263.8428333333333 L 409.02091254753 265.8215 L 410.31939163498 263.71916666666664 L 411.61787072243 263.47183333333334 L 412.91634980989 261.49316666666664 L 414.21482889734 265.2031666666667 L 415.51330798479 259.329 L 416.81178707224 256.79383333333334 L 418.1102661597 251.10516666666666 L 419.40874524715 249.683 L 420.7072243346 254.135 L 422.00570342205 245.973 L 423.30418250951 250.73416666666668 L 424.60266159696 252.03266666666667 L 425.90114068441 256.11366666666663 L 427.19961977186 262.668 L 428.49809885932 262.35883333333334 L 429.79657794677 258.33966666666663 L 431.09505703422 256.4228333333333 L 432.39353612167 250.796 L 433.69201520913 250.6723333333333 L 434.99049429658 252.46550000000002 L 436.28897338403 252.52733333333333 L 437.58745247148 261.184 L 438.88593155894 261.7405 L 440.18441064639 248.75549999999998 L 441.48288973384 246.83866666666665 L 442.78136882129 238.4911666666667 L 444.07984790875 237.37816666666666 L 445.3783269962 231.875 L 446.67680608365 235.89416666666665 L 447.9752851711 229.77266666666668 L 449.27376425856 202.87516666666667 L 450.57224334601 168.6813333333333 L 451.87072243346 166.45533333333333 L 453.16920152091 147.658 L 454.46768060836 155.3253333333333 L 455.76615969582 196.19716666666667 L 457.06463878327 196.87733333333333 L 458.36311787072 228.59783333333334 L 459.66159695817 244.61266666666666 L 460.96007604563 241.21183333333332 L 462.25855513308 217.52966666666666 L 463.55703422053 236.327 L 464.85551330798 263.781 L 466.15399239544 273.11783333333335 L 467.45247148289 270.5208333333333 L 468.75095057034 264.83216666666664 L 470.04942965779 256.0518333333333 L 471.34790874525 255.6808333333333 L 472.6463878327 260.00916666666666 L 473.94486692015 262.60616666666664 L 475.2433460076 268.233 L 476.54182509506 268.1093333333333 L 477.84030418251 268.3566666666667 L 479.13878326996 278.86833333333334 L 480.43726235741 274.169 L 481.73574144487 274.10716666666667 L 483.03422053232 270.8918333333333 L 484.33269961977 270.14983333333333 L 485.63117870722 272.19033333333334 L 486.92965779468 281.09433333333334 L 488.22813688213 288.3288333333333 L 489.52661596958 285.23716666666667 L 490.82509505703 297.66566666666665 L 492.12357414449 290.122 L 493.42205323194 283.32033333333334 L 494.72053231939 281.15616666666665 L 496.01901140684 293.6465 L 497.3174904943 298.71683333333334 L 498.61596958175 301.68483333333336 L 499.9144486692 301.8085 L 501.21292775665 296.79999999999995 L 502.51140684411 299.768 L 503.80988593156 291.5441666666667 L 505.10836501901 278.49733333333336 L 506.40684410646 271.201 L 507.70532319392 276.1476666666667 L 509.00380228137 284.18600000000004 L 510.30228136882 287.40133333333335 L 511.60076045627 295.9343333333333 L 512.89923954373 287.0488833333333 L 514.19771863118 290.6166666666667 L 515.49619771863 265.0176666666667 L 516.79467680608 260.38016666666664 L 518.09315589354 267.1571 L 519.39163498099 268.6782 L 520.69011406844 289.7262666666667 L 521.98859315589 287.4198833333333 L 523.28707224335 290.6537666666667 L 524.5855513308 289.3923666666667 L 525.88403041825 297.171 L 527.1825095057 302.90913333333333 L 528.48098859316 298.54988333333336 L 529.77946768061 310.4033333333333 L 531.07794676806 317.4585166666667 L 532.37642585551 318.96725 L 533.67490494297 318.66426666666666 L 534.97338403042 319.2455 L 536.27186311787 314.7502166666667 L 537.57034220532 320.72950000000003 L 538.86882129278 319.2455 L 540.16730038023 310.156 L 541.46577946768 324.87233333333336 L 542.76425855513 329.50983333333335 L 544.06273764259 330.80833333333334 L 545.36121673004 324.87233333333336 L 546.65969581749 323.883 L 547.95817490494 326.9128333333333 L 549.2566539924 316.52483333333333 L 550.55513307985 319.9875 L 551.8536121673 331.674 L 553.15209125475 325.30516666666665 L 554.45057034221 319.1218333333333 L 555.74904942966 321.59516666666667 L 557.04752851711 325.05783333333335 L 558.34600760456 329.75716666666665 L 559.64448669202 340.3925 L 560.94296577947 326.35633333333334 L 562.24144486692 320.3585 L 563.53992395437 327.34566666666666 L 564.83840304183 321.96616666666665 L 566.13688212928 320.66766666666666 L 567.43536121673 293.6465 L 568.73384030418 288.1433333333333 L 570.03231939164 281.4653333333333 L 571.33079847909 268.7895 L 572.62927756654 273.427 L 573.92775665399 292.5335 L 575.22623574144 305.704 L 576.5247148289 301.4993333333333 L 577.82319391635 282.08366666666666 L 579.1216730038 263.34816666666666 L 580.42015209125 261.3695 L 581.71863117871 249.1265 L 583.01711026616 225.44433333333333 L 584.31558935361 254.25866666666667 L 585.61406844106 247.64249999999998 L 586.91254752852 268.975 L 588.21102661597 257.04116666666664 L 589.50950570342 273.61249999999995 L 590.80798479087 272.62316666666663 L 592.10646387833 265.8833333333333 L 593.40494296578 277.137 L 594.70342205323 275.83849999999995 L 596.00190114068 265.8833333333333 L 597.30038022814 263.5955 L 598.59885931559 281.589 L 599.89733840304 274.29266666666666 L 601.19581749049 255.8045 L 602.49429657795 252.77466666666666 L 603.7927756654 243.06683333333334 L 605.09125475285 261.49316666666664 L 606.3897338403 265.8215 L 607.68821292776 272.06666666666666 L 608.98669201521 276.0858333333333 L 610.28517110266 270.8918333333333 L 611.58365019011 269.6551666666667 L 612.88212927757 276.64233333333334 L 614.18060836502 267.12 L 615.47908745247 264.0283333333333 L 616.77756653992 251.59983333333332 L 618.07604562738 249.93033333333332 L 619.37452471483 249.74483333333333 L 620.67300380228 253.14566666666667 L 621.97148288973 248.19899999999998 L 623.26996197719 241.3355 L 624.56844106464 229.03066666666666 L 625.86692015209 234.03916666666666 L 627.16539923954 215.18 L 628.463878327 204.04999999999998 L 629.76235741445 205.65766666666667 L 631.0608365019 205.65766666666667 L 632.35931558935 181.79000000000002 L 633.65779467681 190.81766666666664 L 634.95627376426 176.84333333333333 L 636.25475285171 194.09483333333333 L 637.55323193916 194.71316666666667 L 638.85171102662 161.50866666666667 L 640.15019011407 141.47466666666668 L 641.44866920152 127.50033333333334 L 642.74714828897 117.17416666666662 L 644.04562737643 115.01000000000002 L 645.34410646388 85.39183333333335 L 646.64258555133 88.7308333333333 L 647.94106463878 98.315 L 649.23954372624 106.3533333333333 L 650.53802281369 97.32566666666662 L 651.83650190114 91.76066666666668 L 653.13498098859 136.5898333333333 L 654.43346007605 120.45133333333334 L 655.7319391635 101.15933333333334 L 657.03041825095 180.98616666666663 L 658.3288973384 192.36350000000002 L 659.62737642586 207.82183333333333 L 660.92585551331 208.37833333333333 L 662.22433460076 202.195 L 663.52281368821 190.694 L 664.82129277567 185.06716666666668 L 666.11977186312 201.20566666666667 L 667.41825095057 156.25283333333334 L 668.71673003802 155.078 L 670.01520912548 189.51916666666665 L 671.31368821293 162.18883333333335 L 672.61216730038 156.43833333333333 L 673.91064638783 122.67733333333334 L 675.20912547529 140.67083333333335 L 676.50760456274 130.7775" class="highcharts-graph" data-z-index="1" stroke="#2962FF" stroke-width="2" stroke-linejoin="round" stroke-linecap="round"></path></g><g data-z-index="90" class="highcharts-markers highcharts-series-0 highcharts-line-series " transform="translate(0,40) scale(1 1)" clip-path="none"></g></g><text x="736" text-anchor="end" class="highcharts-title" data-z-index="4" style="color:#333;font-size:16px;fill:#333;font-size:12px;" y="464"><tspan>source: tradingeconomics.com</tspan></text><text x="14" text-anchor="start" class="highcharts-subtitle" data-z-index="4" style="color:#333;fill:#333;font-size:13px;" y="25"><tspan>Natural gas</tspan></text><text x="0" text-anchor="start" class="highcharts-caption" data-z-index="4" style="color:#666666;fill:#666666;" y="475"></text><g class="highcharts-axis-labels highcharts-xaxis-labels" data-z-index="7"><text x="121.12954915807" style="color:#666666;cursor:default;font-size:11px;font-size:12px;font-weight:400;fill:#666666;" text-anchor="middle" transform="translate(0,0)" y="431" opacity="1">2014</text><text x="256.54236827811" style="color:#666666;cursor:default;font-size:11px;font-size:12px;font-weight:400;fill:#666666;" text-anchor="middle" transform="translate(0,0)" y="431" opacity="1">2016</text><text x="392.14068441065" style="color:#666666;cursor:default;font-size:11px;font-size:12px;font-weight:400;fill:#666666;" text-anchor="middle" transform="translate(0,0)" y="431" opacity="1">2018</text><text x="527.55350353069" style="color:#666666;cursor:default;font-size:11px;font-size:12px;font-weight:400;fill:#666666;" text-anchor="middle" transform="translate(0,0)" y="431" opacity="1">2020</text><text x="663.15181966323" style="color:#666666;cursor:default;font-size:11px;font-size:12px;font-weight:400;fill:#666666;" text-anchor="middle" transform="translate(0,0)" y="431" opacity="1">2022</text></g><g class="highcharts-axis-labels highcharts-yaxis-labels" data-z-index="7"><text x="0" style="color:unset;cursor:default;font-size:11px;font-size:12px;fill:unset;" text-anchor="start" transform="translate(0,0)" y="-9999">1</text><text x="696" style="color:unset;cursor:default;font-size:11px;font-size:12px;fill:unset;" text-anchor="start" transform="translate(0,0)" y="354" opacity="1">2</text><text x="696" style="color:unset;cursor:default;font-size:11px;font-size:12px;fill:unset;" text-anchor="start" transform="translate(0,0)" y="292" opacity="1">3</text><text x="696" style="color:unset;cursor:default;font-size:11px;font-size:12px;fill:unset;" text-anchor="start" transform="translate(0,0)" y="230" opacity="1">4</text><text x="696" style="color:unset;cursor:default;font-size:11px;font-size:12px;fill:unset;" text-anchor="start" transform="translate(0,0)" y="168" opacity="1">5</text><text x="696" style="color:unset;cursor:default;font-size:11px;font-size:12px;fill:unset;" text-anchor="start" transform="translate(0,0)" y="106" opacity="1">6</text><text x="0" style="color:unset;cursor:default;font-size:11px;font-size:12px;fill:unset;" text-anchor="start" transform="translate(0,0)" y="-9999">7</text></g><g class="highcharts-axis-labels highcharts-yaxis-labels" data-z-index="7"></g><g class="highcharts-axis-labels highcharts-yaxis-labels" data-z-index="7"></g><g class="highcharts-axis highcharts-yaxis" data-z-index="9999"><path fill="none" class="highcharts-tick" stroke="#E7E7E7" stroke-width="1.5" d="M 684 411.75 L 694 411.75" opacity="1"></path><path fill="none" class="highcharts-tick" stroke="#E7E7E7" stroke-width="1.5" d="M 684 349.75 L 694 349.75" opacity="1"></path><path fill="none" class="highcharts-tick" stroke="#E7E7E7" stroke-width="1.5" d="M 684 287.75 L 694 287.75" opacity="1"></path><path fill="none" class="highcharts-tick" stroke="#E7E7E7" stroke-width="1.5" d="M 684 226.75 L 694 226.75" opacity="1"></path><path fill="none" class="highcharts-tick" stroke="#E7E7E7" stroke-width="1.5" d="M 684 164.75 L 694 164.75" opacity="1"></path><path fill="none" class="highcharts-tick" stroke="#E7E7E7" stroke-width="1.5" d="M 684 102.75 L 694 102.75" opacity="1"></path><path fill="none" class="highcharts-tick" stroke="#E7E7E7" stroke-width="1.5" d="M 684 39.25 L 694 39.25" opacity="1"></path><path fill="none" class="highcharts-axis-line" stroke="#E6E6E6" stroke-width="1" data-z-index="7" d="M 684.5 40 L 684.5 411"></path></g><path fill="none" d="M 0 0 L 1239 0" stroke="#524f4f" stroke-width="1" stroke-dasharray="8,3" data-z-index="10" class="crossHairLine" visibility="hidden"></path><path fill="none" d="M 0 40 L 0 597.6" stroke="#524f4f" stroke-width="1" stroke-dasharray="8,3" data-z-index="10" class="crossHairLine" visibility="hidden"></path></svg>