<?xml version="1.0" standalone="no"?><!DOCTYPE svg PUBLIC "-//W3C//DTD SVG 1.1//EN" "http://www.w3.org/Graphics/SVG/1.1/DTD/svg11.dtd"><svg xmlns:xlink="http://www.w3.org/1999/xlink" version="1.1" class="highcharts-root" style="font-family:'Helvetica Neue',Helvetica,Arial,sans-serif;font-size:12px;" xmlns="http://www.w3.org/2000/svg" width="746" height="468" viewBox="0 0 746 468"><desc>Created with Highcharts 7.2.0</desc><defs><clipPath id="highcharts-o9no45k-1576-"><rect x="0" y="0" width="683" height="371" fill="none"></rect></clipPath><clipPath id="highcharts-o9no45k-2098-"><rect x="0" y="0" width="683" height="371" fill="none"></rect></clipPath></defs><rect fill="#ffffff" class="highcharts-background" x="0" y="0" width="746" height="468" rx="0" ry="0"></rect><rect fill="none" class="highcharts-plot-background" x="0" y="40" width="683" height="371"></rect><g class="highcharts-grid highcharts-xaxis-grid" data-z-index="1"><path fill="none" stroke="#EDF3F6" stroke-width="1" data-z-index="1" class="highcharts-grid-line" d="M 119.5 40 L 119.5 411" opacity="1"></path><path fill="none" stroke="#EDF3F6" stroke-width="1" data-z-index="1" class="highcharts-grid-line" d="M 255.5 40 L 255.5 411" opacity="1"></path><path fill="none" stroke="#EDF3F6" stroke-width="1" data-z-index="1" class="highcharts-grid-line" d="M 390.5 40 L 390.5 411" opacity="1"></path><path fill="none" stroke="#EDF3F6" stroke-width="1" data-z-index="1" class="highcharts-grid-line" d="M 526.5 40 L 526.5 411" opacity="1"></path><path fill="none" stroke="#EDF3F6" stroke-width="1" data-z-index="1" class="highcharts-grid-line" d="M 662.5 40 L 662.5 411" opacity="1"></path></g><g class="highcharts-grid highcharts-yaxis-grid" data-z-index="1"><path fill="none" stroke="#E7E7E7" stroke-width="1" data-z-index="1" class="highcharts-grid-line" d="M 0 411.5 L 683 411.5" opacity="1"></path><path fill="none" stroke="#E7E7E7" stroke-width="1" data-z-index="1" class="highcharts-grid-line" d="M 0 370.5 L 683 370.5" opacity="1"></path><path fill="none" stroke="#E7E7E7" stroke-width="1" data-z-index="1" class="highcharts-grid-line" d="M 0 329.5 L 683 329.5" opacity="1"></path><path fill="none" stroke="#E7E7E7" stroke-width="1" data-z-index="1" class="highcharts-grid-line" d="M 0 287.5 L 683 287.5" opacity="1"></path><path fill="none" stroke="#E7E7E7" stroke-width="1" data-z-index="1" class="highcharts-grid-line" d="M 0 246.5 L 683 246.5" opacity="1"></path><path fill="none" stroke="#E7E7E7" stroke-width="1" data-z-index="1" class="highcharts-grid-line" d="M 0 205.5 L 683 205.5" opacity="1"></path><path fill="none" stroke="#E7E7E7" stroke-width="1" data-z-index="1" class="highcharts-grid-line" d="M 0 164.5 L 683 164.5" opacity="1"></path><path fill="none" stroke="#E7E7E7" stroke-width="1" data-z-index="1" class="highcharts-grid-line" d="M 0 122.5 L 683 122.5" opacity="1"></path><path fill="none" stroke="#E7E7E7" stroke-width="1" data-z-index="1" class="highcharts-grid-line" d="M 0 81.5 L 683 81.5" opacity="1"></path><path fill="none" stroke="#E7E7E7" stroke-width="1" data-z-index="1" class="highcharts-grid-line" d="M 0 39.5 L 683 39.5" opacity="1"></path></g><g class="highcharts-grid highcharts-yaxis-grid" data-z-index="1"></g><g class="highcharts-grid highcharts-yaxis-grid" data-z-index="1"></g><rect fill="none" class="highcharts-plot-border" data-z-index="1" x="0" y="40" width="683" height="371"></rect><g class="highcharts-axis highcharts-xaxis" data-z-index="2"><path fill="none" class="highcharts-axis-line" stroke="#ccd6eb" stroke-width="1" data-z-index="7" d="M 0 411.5 L 683 411.5"></path></g><g class="highcharts-axis highcharts-yaxis" data-z-index="2"><path fill="none" class="highcharts-axis-line" data-z-index="7" d="M 716 40 L 716 411"></path></g><g class="highcharts-axis highcharts-yaxis" data-z-index="2"><path fill="none" class="highcharts-axis-line" stroke="#E6E6E6" stroke-width="1" data-z-index="7" d="M -1.5 40 L -1.5 411"></path></g><g class="highcharts-series-group" data-z-index="3"><g data-z-index="90" class="highcharts-series highcharts-series-0 highcharts-line-series " transform="translate(0,40) scale(1 1)" clip-path="url(#highcharts-o9no45k-2098-)"><path fill="none" d="M 0 331.26177777777775 L 1.3009523809523 330.0416 L 2.6019047619046 330.6352 L 3.9028571428569 330.932 L 5.2038095238097 330.5197777777778 L 6.5047619047621 331.44315555555556 L 7.8057142857144 330.14053333333334 L 9.1066666666667 330.3548888888889 L 10.407619047619 332.25111111111113 L 11.708571428571 332.1686666666667 L 13.009523809524 332.25111111111113 L 14.310476190476 332.02026666666666 L 15.611428571429 332.25111111111113 L 16.912380952381 332.25111111111113 L 18.213333333333 331.59155555555554 L 19.514285714286 330.3548888888889 L 20.815238095238 331.0639111111111 L 22.11619047619 331.8388888888889 L 23.417142857143 331.8224 L 24.718095238095 331.6575111111111 L 26.019047619048 330.25595555555554 L 27.32 330.0910666666667 L 28.620952380952 329.8602222222222 L 29.921904761905 328.7224888888889 L 31.222857142857 328.68951111111113 L 32.52380952381 328.64004444444447 L 33.824761904762 329.5139555555555 L 35.125714285714 328.92035555555555 L 36.426666666667 326.9746666666667 L 37.727619047619 327.3704 L 39.028571428571 325.98533333333336 L 40.329523809524 325.3257777777778 L 41.630476190476 325.98533333333336 L 42.931428571429 326.1502222222222 L 44.232380952381 325.49066666666664 L 45.533333333333 325.1608888888889 L 46.834285714286 325.49066666666664 L 48.135238095238 324.4188888888889 L 49.43619047619 325.67204444444445 L 50.737142857143 326.1502222222222 L 52.038095238095 327.5517777777778 L 53.339047619048 326.1502222222222 L 54.64 326.3151111111111 L 55.940952380952 327.0571111111111 L 57.241904761905 327.964 L 58.542857142857 328.47515555555555 L 59.84380952381 328.12888888888887 L 61.144761904762 328.7554666666667 L 62.445714285714 329.25013333333334 L 63.746666666667 328.21133333333336 L 65.047619047619 327.3704 L 66.348571428571 326.2986222222222 L 67.649523809524 325.90288888888887 L 68.950476190476 325.96884444444447 L 70.251428571429 326.0677777777778 L 71.552380952381 327.1725333333333 L 72.853333333333 327.5517777777778 L 74.154285714286 327.46933333333334 L 75.455238095238 327.88155555555556 L 76.75619047619 327.4858222222222 L 78.057142857143 326.89222222222224 L 79.358095238095 327.60124444444443 L 80.659047619048 328.2608 L 81.96 328.0959111111111 L 83.260952380952 328.24431111111113 L 84.561904761905 327.8320888888889 L 85.862857142857 327.89804444444445 L 87.16380952381 327.7166666666667 L 88.464761904762 327.88155555555556 L 89.765714285714 327.9310222222222 L 91.066666666667 328.6235555555555 L 92.367619047619 328.24431111111113 L 93.668571428571 328.706 L 94.969523809524 328.6235555555555 L 96.270476190476 327.8403333333333 L 97.571428571429 327.1890222222222 L 98.872380952381 326.851 L 100.17333333333 327.23024444444445 L 101.47428571429 327.2797111111111 L 102.77523809524 326.4964888888889 L 104.07619047619 326.3151111111111 L 105.37714285714 326.5080311111111 L 106.6780952381 326.74712 L 107.97904761905 326.5113288888889 L 109.28 326.03974666666664 L 110.58095238095 324.42548444444446 L 111.8819047619 325.22189777777777 L 113.18285714286 324.3710711111111 L 114.48380952381 323.9291688888889 L 115.78476190476 325.3686488888889 L 117.08571428571 325.0454666666667 L 118.38666666667 325.3257777777778 L 119.68761904762 326.12878666666666 L 120.98857142857 326.6366444444444 L 122.28952380952 327.3720488888889 L 123.59047619048 327.09833333333336 L 124.89142857143 329.69038666666665 L 126.19238095238 330.19 L 127.49333333333 331.38544444444443 L 128.79428571429 332.0631377777778 L 130.09523809524 332.92056 L 131.39619047619 331.0474222222222 L 132.69714285714 331.6311288888889 L 133.9980952381 333.8126088888889 L 135.29904761905 335.34442666666666 L 136.6 337.9859466666667 L 137.90095238095 335.7517022222222 L 139.2019047619 336.4178533333333 L 140.50285714286 338.02552000000003 L 141.80380952381 337.8490888888889 L 143.10476190476 338.2761511111111 L 144.40571428571 339.1665511111111 L 145.70666666667 338.69331999999997 L 147.00761904762 339.6348355555556 L 148.30857142857 343.0678222222222 L 149.60952380952 341.02484888888887 L 150.91047619048 342.2071022222222 L 152.21142857143 342.60613333333333 L 153.51238095238 343.82796 L 154.81333333333 345.6582266666667 L 156.11428571429 343.3168044444444 L 157.41523809524 341.04133777777776 L 158.71619047619 341.29032 L 160.01714285714 340.88469333333336 L 161.3180952381 339.61834666666664 L 162.61904761905 341.3084577777778 L 163.92 334.67497777777777 L 165.22095238095 335.03773333333334 L 166.5219047619 335.70718222222223 L 167.82285714286 334.2891377777778 L 169.12380952381 334.71949777777775 L 170.42476190476 332.1719644444444 L 171.72571428571 332.82327555555554 L 173.02666666667 333.69223999999997 L 174.32761904762 333.77468444444446 L 175.62857142857 333.3195911111111 L 176.92952380952 332.7111511111111 L 178.23047619048 334.2693511111111 L 179.53142857143 332.4258933333333 L 180.83238095238 331.0853466666667 L 182.13333333333 332.58748444444444 L 183.43428571429 333.51416 L 184.73523809524 334.0945688888889 L 186.03619047619 333.7433555555556 L 187.33714285714 337.28352 L 188.6380952381 338.7477333333333 L 189.93904761905 338.3190222222222 L 191.24 338.90108 L 192.54095238095 337.58526666666666 L 193.8419047619 336.35849333333334 L 195.14285714286 332.1686666666667 L 196.44380952381 334.38972 L 197.74476190476 332.9832177777778 L 199.04571428571 336.37498222222223 L 200.34666666667 335.3378311111111 L 201.64761904762 335.9825466666667 L 202.94857142857 335.03938222222223 L 204.24952380952 334.92725777777775 L 205.55047619048 335.21416444444446 L 206.85142857143 336.13094666666666 L 208.15238095238 336.14578666666665 L 209.45333333333 337.23405333333335 L 210.75428571429 337.5358 L 212.05523809524 337.22416 L 213.35619047619 337.34123111111114 L 214.65714285714 337.6198933333333 L 215.9580952381 337.84744 L 217.25904761905 337.9480222222222 L 218.56 337.5489911111111 L 219.86095238095 337.2851688888889 L 221.1619047619 336.66518666666667 L 222.46285714286 336.58439111111113 L 223.76380952381 336.46402222222224 L 225.06476190476 337.2818711111111 L 226.36571428571 337.1812888888889 L 227.66666666667 337.9826488888889 L 228.96761904762 338.92251555555555 L 230.26857142857 339.836 L 231.56952380952 339.7156311111111 L 232.87047619048 338.9703333333333 L 234.17142857143 339.21272 L 235.47238095238 339.79148 L 236.77333333333 340.0783866666667 L 238.07428571429 341.02814666666666 L 239.37523809524 340.0767377777778 L 240.67619047619 340.99352 L 241.97714285714 340.8649066666667 L 243.2780952381 341.3381377777778 L 244.57904761905 341.5327066666667 L 245.88 342.96724 L 247.18095238095 342.60448444444444 L 248.4819047619 342.0751911111111 L 249.78285714286 342.2219422222222 L 251.08380952381 344.14124888888887 L 252.38476190476 345.61700444444443 L 253.68571428571 347.16201333333333 L 254.98666666667 346.6195288888889 L 256.28761904762 346.6525066666667 L 257.58857142857 349.03515111111113 L 258.88952380952 348.80925333333334 L 260.19047619048 348.9444622222222 L 261.49142857143 350.7648355555556 L 262.79238095238 351.0781244444444 L 264.09333333333 351.2215777777778 L 265.39428571429 350.94291555555554 L 266.69523809524 351.4573688888889 L 267.99619047619 351.2133333333333 L 269.29714285714 351.0138177777778 L 270.5980952381 351.14408000000003 L 271.89904761905 351.80858222222224 L 273.2 352.6148888888889 L 274.50095238095 352.51595555555554 L 275.8019047619 349.4325333333333 L 277.10285714286 349.92884888888887 L 278.40380952381 349.7705555555556 L 279.70476190476 349.80518222222224 L 281.00571428571 349.51827555555553 L 282.30666666667 348.2173022222222 L 283.60761904762 347.47365333333335 L 284.90857142857 347.9369911111111 L 286.20952380952 347.0614311111111 L 287.51047619048 346.4315555555556 L 288.81142857143 347.45386666666667 L 290.11238095238 347.68965777777777 L 291.41333333333 347.5544488888889 L 292.71428571429 346.514 L 294.01523809524 347.16036444444444 L 295.31619047619 348.9873333333333 L 296.61714285714 350.7631866666667 L 297.9180952381 353.50034222222223 L 299.21904761905 352.1400088888889 L 300.52 350.02613333333335 L 301.82095238095 351.37822222222223 L 303.1219047619 349.93049777777776 L 304.42285714286 347.89906666666667 L 305.72380952381 345.68955555555556 L 307.02476190476 344.4941111111111 L 308.32571428571 344.3753911111111 L 309.62666666667 343.3398888888889 L 310.92761904762 342.5566666666667 L 312.22857142857 340.7626755555556 L 313.52952380952 341.2177688888889 L 314.83047619048 341.48818666666665 L 316.13142857143 341.80972 L 317.43238095238 342.0784888888889 L 318.73333333333 343.80652444444445 L 320.03428571429 342.14609333333334 L 321.33523809524 341.18644 L 322.63619047619 338.77906222222225 L 323.93714285714 340.4246533333333 L 325.2380952381 338.0090311111111 L 326.53904761905 337.20932 L 327.84 338.8466666666667 L 329.14095238095 334.32376444444446 L 330.4419047619 338.3981688888889 L 331.74285714286 340.5351288888889 L 333.04380952381 341.6530755555556 L 334.34476190476 343.35472888888887 L 335.64571428571 344.37044444444444 L 336.94666666667 344.6458088888889 L 338.24761904762 345.8593911111111 L 339.54857142857 344.94590666666664 L 340.84952380952 344.88984444444446 L 342.15047619048 345.1948888888889 L 343.45142857143 344.0884844444444 L 344.75238095238 344.31768 L 346.05333333333 344.91128 L 347.35428571429 345.68955555555556 L 348.65523809524 345.4422222222222 L 349.95619047619 345.68955555555556 L 351.25714285714 346.36065333333335 L 352.5580952381 346.26336888888886 L 353.85904761905 346.92787111111113 L 355.16 346.885 L 356.46095238095 346.5304888888889 L 357.7619047619 346.6360177777778 L 359.06285714286 346.8685111111111 L 360.36380952381 346.4579377777778 L 361.66476190476 346.2946977777778 L 362.96571428571 346.26666666666665 L 364.26666666667 344.59469333333334 L 365.56761904762 344.45618666666667 L 366.86857142857 344.11816444444446 L 368.16952380952 343.93843555555554 L 369.47047619048 343.3201022222222 L 370.77142857143 342.6424088888889 L 372.07238095238 343.5509466666667 L 373.37333333333 342.33901333333336 L 374.67428571429 341.23920444444445 L 375.97523809524 341.4189333333333 L 377.27619047619 341.70089333333334 L 378.57714285714 341.94657777777775 L 379.8780952381 340.9654888888889 L 381.17904761905 338.6273644444444 L 382.48 339.91844444444445 L 383.78095238095 337.2950622222222 L 385.0819047619 336.6173688888889 L 386.38285714286 336.45577777777777 L 387.68380952381 336.3139733333333 L 388.98476190476 338.5581111111111 L 390.28571428571 338.6405555555556 L 391.58666666667 339.79148 L 392.88761904762 338.26296 L 394.18857142857 341.02814666666666 L 395.48952380952 341.56238666666667 L 396.79047619048 341.01495555555556 L 398.09142857143 341.48324 L 399.39238095238 340.9836266666667 L 400.69333333333 336.8515111111111 L 401.99428571429 341.4436666666667 L 403.29523809524 339.7749911111111 L 404.59619047619 340.2004044444445 L 405.89714285714 340.57305333333335 L 407.1980952381 340.9803288888889 L 408.49904761905 341.05782666666664 L 409.8 338.68177777777777 L 411.10095238095 338.3948711111111 L 412.4019047619 337.6132977777778 L 413.70285714286 337.36266666666666 L 415.00380952381 335.9743022222222 L 416.30476190476 334.6370533333333 L 417.60571428571 334.8596533333333 L 418.90666666667 335.12842222222224 L 420.20761904762 335.4895288888889 L 421.50857142857 335.12017777777777 L 422.80952380952 335.24879111111113 L 424.11047619048 334.9388 L 425.41142857143 334.13743999999997 L 426.71238095238 334.2891377777778 L 428.01333333333 334.93220444444444 L 429.31428571429 334.90252444444445 L 430.61523809524 334.2940844444444 L 431.91619047619 333.27177333333333 L 433.21714285714 331.1743866666667 L 434.5180952381 329.819 L 435.81904761905 328.3976577777778 L 437.12 324.8492488888889 L 438.42095238095 326.5970711111111 L 439.7219047619 323.6373155555556 L 441.02285714286 325.93751555555554 L 442.32380952381 324.9927022222222 L 443.62476190476 327.0933866666667 L 444.92571428571 326.7141422222222 L 446.22666666667 330.9633288888889 L 447.52761904762 330.9600311111111 L 448.82857142857 330.8891288888889 L 450.12952380952 328.20144 L 451.43047619048 330.0762266666667 L 452.73142857143 330.2872844444444 L 454.03238095238 332.8397644444444 L 455.33333333333 330.36148444444444 L 456.63428571429 329.9426666666667 L 457.93523809524 333.38884444444443 L 459.23619047619 333.1909777777778 L 460.53714285714 334.3039777777778 L 461.8380952381 333.72851555555553 L 463.13904761905 336.55636 L 464.44 339.1780933333333 L 465.74095238095 340.88469333333336 L 467.0419047619 341.1551111111111 L 468.34285714286 342.58799555555555 L 469.64380952381 342.43959555555557 L 470.94476190476 343.4157377777778 L 472.24571428571 345.85114666666664 L 473.54666666667 347.16696 L 474.84761904762 347.5643422222222 L 476.14857142857 343.57403111111114 L 477.44952380952 344.8601644444444 L 478.75047619048 347.15376888888886 L 480.05142857143 347.2180755555556 L 481.35238095238 346.9822844444444 L 482.65333333333 347.92050222222224 L 483.95428571429 349.80188444444445 L 485.25523809524 350.80276 L 486.55619047619 352.5242 L 487.85714285714 352.0048 L 489.1580952381 352.3362266666667 L 490.45904761905 353.92575555555555 L 491.76 354.3181911111111 L 493.06095238095 352.5060622222222 L 494.3619047619 349.1060533333333 L 495.66285714286 353.17056444444444 L 496.96380952381 354.5704711111111 L 498.26476190476 351.1918977777778 L 499.56571428571 351.17376 L 500.86666666667 352.93642222222223 L 502.16761904762 353.5498088888889 L 503.46857142857 349.8991688888889 L 504.76952380952 350.6345733333333 L 506.07047619048 346.74319555555553 L 507.37142857143 350.04097333333334 L 508.67238095238 351.3139155555556 L 509.97333333333 344.9986711111111 L 511.27428571429 344.3935288888889 L 512.57523809524 344.6721911111111 L 513.87619047619 345.8791777777778 L 515.17714285714 344.32592444444447 L 516.4780952381 344.71341333333334 L 517.77904761905 345.0910088888889 L 519.08 344.5386311111111 L 520.38095238095 344.0736444444444 L 521.6819047619 346.03417333333334 L 522.98285714286 348.23873777777777 L 524.28380952381 347.5280666666667 L 525.58476190476 349.94863555555554 L 526.88571428571 349.58917777777776 L 528.18666666667 351.3122666666667 L 529.48761904762 352.9792933333333 L 530.78857142857 353.7608666666667 L 532.08952380952 354.9150888888889 L 533.39047619048 356.04787555555555 L 534.69142857143 356.35951555555556 L 535.99238095238 355.48395555555555 L 537.29333333333 356.36776 L 538.59428571429 356.7420577777778 L 539.89523809524 355.69006666666667 L 541.19619047619 357.3257644444444 L 542.49714285714 359.09832 L 543.7980952381 359.5863911111111 L 545.09904761905 358.9977377777778 L 546.4 359.4676711111111 L 547.70095238095 361.48591111111114 L 549.0019047619 361.36554222222225 L 550.30285714286 361.38532888888886 L 551.60380952381 362.39609777777775 L 552.90476190476 364.5874711111111 L 554.20571428571 363.7696222222222 L 555.50666666667 361.58814222222225 L 556.80761904762 362.3054088888889 L 558.10857142857 361.7414888888889 L 559.40952380952 362.58242222222225 L 560.71047619048 361.05555111111113 L 562.01142857143 361.9723333333333 L 563.31238095238 362.5675822222222 L 564.61333333333 362.73741777777775 L 565.91428571429 361.0687422222222 L 567.21523809524 357.92266222222224 L 568.51619047619 357.77756 L 569.81714285714 358.4321688888889 L 571.1180952381 352.58356 L 572.41904761905 351.73768 L 573.72 353.69161333333335 L 575.02095238095 352.079 L 576.3219047619 351.7640622222222 L 577.62285714286 349.5215733333333 L 578.92380952381 348.3228311111111 L 580.22476190476 347.09276 L 581.52571428571 345.59062222222224 L 582.82666666667 347.81497333333334 L 584.12761904762 348.0771466666667 L 585.42857142857 347.5214711111111 L 586.72952380952 349.7392266666667 L 588.03047619048 347.11584444444446 L 589.33142857143 346.85532 L 590.63238095238 344.68538222222224 L 591.93333333333 344.80575111111114 L 593.23428571429 341.89876 L 594.53523809524 339.46829777777776 L 595.83619047619 337.82765333333333 L 597.13714285714 337.69244444444445 L 598.4380952381 335.57692 L 599.73904761905 338.3206711111111 L 601.04 340.69342222222224 L 602.34095238095 341.94987555555554 L 603.6419047619 343.70429333333334 L 604.94285714286 345.1223377777778 L 606.24380952381 344.01263555555556 L 607.54476190476 340.58129777777776 L 608.84571428571 342.5302844444444 L 610.14666666667 340.16742666666664 L 611.44761904762 339.3875022222222 L 612.74857142857 339.77334222222225 L 614.04952380952 337.13512000000003 L 615.35047619048 337.9463733333333 L 616.65142857143 332.6056222222222 L 617.95238095238 331.5239511111111 L 619.25333333333 326.7603111111111 L 620.55428571429 330.1174488888889 L 621.85523809524 329.8915511111111 L 623.15619047619 328.46691111111113 L 624.45714285714 325.0866888888889 L 625.7580952381 322.5160711111111 L 627.05904761905 317.6040311111111 L 628.36 311.9252577777778 L 629.66095238095 310.5979022222222 L 630.9619047619 313.54941333333335 L 632.26285714286 312.42652 L 633.56380952381 303.79788444444443 L 634.86476190476 299.9032088888889 L 636.16571428571 297.41338666666667 L 637.46666666667 301.8390044444444 L 638.76761904762 292.1732177777778 L 640.06857142857 286.07397777777777 L 641.36952380952 275.5029511111111 L 642.67047619048 263.65238666666664 L 643.97142857143 255.18204444444444 L 645.27238095238 216.62277777777777 L 646.57333333333 226.54744000000002 L 647.87428571429 216.58485333333334 L 649.17523809524 226.98934222222223 L 650.47619047619 264.0464711111111 L 651.77714285714 248.93770222222224 L 653.0780952381 246.22033333333334 L 654.37904761905 227.34055555555557 L 655.68 226.27372444444444 L 656.98095238095 223.46072 L 658.2819047619 196.5871288888889 L 659.58285714286 145.24567555555555 L 660.88380952381 188.84889333333334 L 662.18476190476 255.0122088888889 L 663.48571428571 225.6108711111111 L 664.78666666667 227.59613333333334 L 666.08761904762 240.77075555555555 L 667.38857142857 219.19999111111113 L 668.68952380952 234.71603555555555 L 669.99047619048 243.3331288888889 L 671.29142857143 249.37465777777777 L 672.59238095238 215.30861333333334 L 673.89333333333 53.50644444444441 L 675.19428571429 154.61795999999998 L 676.49523809524 199.36715555555554" class="highcharts-graph" data-z-index="1" stroke="#2962FF" stroke-width="2" stroke-linejoin="round" stroke-linecap="round"></path></g><g data-z-index="90" class="highcharts-markers highcharts-series-0 highcharts-line-series " transform="translate(0,40) scale(1 1)" clip-path="none"></g></g><text x="736" text-anchor="end" class="highcharts-title" data-z-index="4" style="color:#333;font-size:16px;fill:#333;font-size:12px;" y="464"><tspan>source: tradingeconomics.com</tspan></text><text x="14" text-anchor="start" class="highcharts-subtitle" data-z-index="4" style="color:#333;fill:#333;font-size:13px;" y="25"><tspan>Natural Gas EU Dutch TTF</tspan></text><text x="0" text-anchor="start" class="highcharts-caption" data-z-index="4" style="color:#666666;fill:#666666;" y="475"></text><g class="highcharts-axis-labels highcharts-xaxis-labels" data-z-index="7"><text x="120.05931972789" style="color:#666666;cursor:default;font-size:11px;font-size:12px;font-weight:400;fill:#666666;" text-anchor="middle" transform="translate(0,0)" y="431" opacity="1">2014</text><text x="255.73006802721" style="color:#666666;cursor:default;font-size:11px;font-size:12px;font-weight:400;fill:#666666;" text-anchor="middle" transform="translate(0,0)" y="431" opacity="1">2016</text><text x="391.36984126984" style="color:#666666;cursor:default;font-size:11px;font-size:12px;font-weight:400;fill:#666666;" text-anchor="middle" transform="translate(0,0)" y="431" opacity="1">2018</text><text x="527.25741496599" style="color:#666666;cursor:default;font-size:11px;font-size:12px;font-weight:400;fill:#666666;" text-anchor="middle" transform="translate(0,0)" y="431" opacity="1">2020</text><text x="663.11401360544" style="color:#666666;cursor:default;font-size:11px;font-size:12px;font-weight:400;fill:#666666;" text-anchor="middle" transform="translate(0,0)" y="431" opacity="1">2022</text></g><g class="highcharts-axis-labels highcharts-yaxis-labels" data-z-index="7"><text x="0" style="color:unset;cursor:default;font-size:11px;font-size:12px;fill:unset;" text-anchor="start" transform="translate(0,0)" y="-9999">0</text><text x="696" style="color:unset;cursor:default;font-size:11px;font-size:12px;fill:unset;" text-anchor="start" transform="translate(0,0)" y="374" opacity="1">25</text><text x="696" style="color:unset;cursor:default;font-size:11px;font-size:12px;fill:unset;" text-anchor="start" transform="translate(0,0)" y="333" opacity="1">50</text><text x="696" style="color:unset;cursor:default;font-size:11px;font-size:12px;fill:unset;" text-anchor="start" transform="translate(0,0)" y="292" opacity="1">75</text><text x="696" style="color:unset;cursor:default;font-size:11px;font-size:12px;fill:unset;" text-anchor="start" transform="translate(0,0)" y="251" opacity="1">100</text><text x="696" style="color:unset;cursor:default;font-size:11px;font-size:12px;fill:unset;" text-anchor="start" transform="translate(0,0)" y="209" opacity="1">125</text><text x="696" style="color:unset;cursor:default;font-size:11px;font-size:12px;fill:unset;" text-anchor="start" transform="translate(0,0)" y="168" opacity="1">150</text><text x="696" style="color:unset;cursor:default;font-size:11px;font-size:12px;fill:unset;" text-anchor="start" transform="translate(0,0)" y="127" opacity="1">175</text><text x="696" style="color:unset;cursor:default;font-size:11px;font-size:12px;fill:unset;" text-anchor="start" transform="translate(0,0)" y="86" opacity="1">200</text><text x="0" style="color:unset;cursor:default;font-size:11px;font-size:12px;fill:unset;" text-anchor="start" transform="translate(0,0)" y="-9999">225</text></g><g class="highcharts-axis-labels highcharts-yaxis-labels" data-z-index="7"></g><g class="highcharts-axis-labels highcharts-yaxis-labels" data-z-index="7"></g><g class="highcharts-axis highcharts-yaxis" data-z-index="9999"><path fill="none" class="highcharts-tick" stroke="#E7E7E7" stroke-width="1.5" d="M 684 411.75 L 694 411.75" opacity="1"></path><path fill="none" class="highcharts-tick" stroke="#E7E7E7" stroke-width="1.5" d="M 684 370.75 L 694 370.75" opacity="1"></path><path fill="none" class="highcharts-tick" stroke="#E7E7E7" stroke-width="1.5" d="M 684 329.75 L 694 329.75" opacity="1"></path><path fill="none" class="highcharts-tick" stroke="#E7E7E7" stroke-width="1.5" d="M 684 287.75 L 694 287.75" opacity="1"></path><path fill="none" class="highcharts-tick" stroke="#E7E7E7" stroke-width="1.5" d="M 684 246.75 L 694 246.75" opacity="1"></path><path fill="none" class="highcharts-tick" stroke="#E7E7E7" stroke-width="1.5" d="M 684 205.75 L 694 205.75" opacity="1"></path><path fill="none" class="highcharts-tick" stroke="#E7E7E7" stroke-width="1.5" d="M 684 164.75 L 694 164.75" opacity="1"></path><path fill="none" class="highcharts-tick" stroke="#E7E7E7" stroke-width="1.5" d="M 684 122.75 L 694 122.75" opacity="1"></path><path fill="none" class="highcharts-tick" stroke="#E7E7E7" stroke-width="1.5" d="M 684 81.75 L 694 81.75" opacity="1"></path><path fill="none" class="highcharts-tick" stroke="#E7E7E7" stroke-width="1.5" d="M 684 39.25 L 694 39.25" opacity="1"></path><path fill="none" class="highcharts-axis-line" stroke="#E6E6E6" stroke-width="1" data-z-index="7" d="M 684.5 40 L 684.5 411"></path></g><path fill="none" d="M 0 0 L 1239 0" stroke="#524f4f" stroke-width="1" stroke-dasharray="8,3" data-z-index="10" class="crossHairLine" visibility="hidden"></path><path fill="none" d="M 0 40 L 0 597.6" stroke="#524f4f" stroke-width="1" stroke-dasharray="8,3" data-z-index="10" class="crossHairLine" visibility="hidden"></path></svg>