<?xml version="1.0" encoding="UTF-8" standalone="no"?>
<!DOCTYPE svg PUBLIC "-//W3C//DTD SVG 1.1//EN"
 "http://www.w3.org/Graphics/SVG/1.1/DTD/svg11.dtd">
<!-- Generated by graphviz version 2.40.1 (20161225.0304)
 -->
<!-- Title: G Pages: 1 -->
<svg width="146pt" height="222pt"
 viewBox="0.00 0.00 146.00 221.60" xmlns="http://www.w3.org/2000/svg" xmlns:xlink="http://www.w3.org/1999/xlink">
<g id="graph0" class="graph" transform="scale(1 1) rotate(0) translate(4 217.6)">
<title>G</title>
<polygon fill="#ffffff" stroke="transparent" points="-4,4 -4,-217.6 142,-217.6 142,4 -4,4"/>
<!-- x1 -->
<g id="node1" class="node">
<title>x1</title>
<ellipse fill="none" stroke="#000000" cx="27" cy="-195.6" rx="27" ry="18"/>
<text text-anchor="middle" x="27" y="-191.4" font-family="Times,serif" font-size="14.00" fill="#000000">x1</text>
</g>
<!-- y -->
<g id="node2" class="node">
<title>y</title>
<ellipse fill="none" stroke="#000000" cx="30" cy="-18" rx="27" ry="18"/>
<text text-anchor="middle" x="30" y="-13.8" font-family="Times,serif" font-size="14.00" fill="#000000">y</text>
</g>
<!-- x1&#45;&gt;y -->
<g id="edge1" class="edge">
<title>x1&#45;&gt;y</title>
<path fill="none" stroke="#000000" d="M25.2875,-177.4532C23.5129,-156.1996 21.2034,-119.9341 22.7856,-88.8 23.5008,-74.7254 25.0109,-59.1376 26.4656,-46.1791"/>
<polygon fill="#000000" stroke="#000000" points="29.9703,-46.3423 27.6558,-36.0033 23.0177,-45.529 29.9703,-46.3423"/>
<text text-anchor="middle" x="49.1072" y="-102.6" font-family="Times,serif" font-size="14.00" fill="#000000">beta1 = 1</text>
</g>
<!-- x2 -->
<g id="node3" class="node">
<title>x2</title>
<ellipse fill="none" stroke="#000000" cx="111" cy="-106.8" rx="27" ry="18"/>
<text text-anchor="middle" x="111" y="-102.6" font-family="Times,serif" font-size="14.00" fill="#000000">x2</text>
</g>
<!-- x1&#45;&gt;x2 -->
<g id="edge2" class="edge">
<title>x1&#45;&gt;x2</title>
<path fill="none" stroke="#000000" d="M41.6317,-180.1322C54.8812,-166.1256 74.567,-145.3149 89.5863,-129.4373"/>
<polygon fill="#000000" stroke="#000000" points="92.2066,-131.7604 96.536,-122.0905 87.1213,-126.95 92.2066,-131.7604"/>
<text text-anchor="middle" x="80.9473" y="-147" font-family="Times,serif" font-size="14.00" fill="#000000">+</text>
</g>
<!-- x2&#45;&gt;y -->
<g id="edge3" class="edge">
<title>x2&#45;&gt;y</title>
<path fill="none" stroke="#000000" d="M96.8909,-91.3322C84.3079,-77.5375 65.705,-57.1432 51.3095,-41.3615"/>
<polygon fill="#000000" stroke="#000000" points="53.5442,-38.6179 44.2192,-33.5885 48.3725,-43.3353 53.5442,-38.6179"/>
<text text-anchor="middle" x="104.1072" y="-58.2" font-family="Times,serif" font-size="14.00" fill="#000000">beta2 = 1</text>
</g>
<!-- z -->
<g id="node4" class="node">
<title>z</title>
<ellipse fill="none" stroke="#000000" cx="111" cy="-195.6" rx="27" ry="18"/>
<text text-anchor="middle" x="111" y="-191.4" font-family="Times,serif" font-size="14.00" fill="#000000">z</text>
</g>
<!-- z&#45;&gt;x2 -->
<g id="edge4" class="edge">
<title>z&#45;&gt;x2</title>
<path fill="none" stroke="#000000" d="M111,-177.2006C111,-165.0949 111,-149.0076 111,-135.2674"/>
<polygon fill="#000000" stroke="#000000" points="114.5001,-134.872 111,-124.872 107.5001,-134.8721 114.5001,-134.872"/>
<text text-anchor="middle" x="114.9473" y="-147" font-family="Times,serif" font-size="14.00" fill="#000000">+</text>
</g>
</g>
</svg>

