<?xml version="1.0" encoding="UTF-8" standalone="no"?>
<!DOCTYPE svg PUBLIC "-//W3C//DTD SVG 1.1//EN"
 "http://www.w3.org/Graphics/SVG/1.1/DTD/svg11.dtd">
<!-- Generated by graphviz version 2.40.1 (20161225.0304)
 -->
<!-- Title: G Pages: 1 -->
<svg width="132pt" height="222pt"
 viewBox="0.00 0.00 132.00 221.60" xmlns="http://www.w3.org/2000/svg" xmlns:xlink="http://www.w3.org/1999/xlink">
<g id="graph0" class="graph" transform="scale(1 1) rotate(0) translate(4 217.6)">
<title>G</title>
<polygon fill="#ffffff" stroke="transparent" points="-4,4 -4,-217.6 128,-217.6 128,4 -4,4"/>
<!-- x1 -->
<g id="node1" class="node">
<title>x1</title>
<ellipse fill="none" stroke="#000000" cx="27" cy="-195.6" rx="27" ry="18"/>
<text text-anchor="middle" x="27" y="-191.4" font-family="Times,serif" font-size="14.00" fill="#000000">x1</text>
</g>
<!-- y -->
<g id="node2" class="node">
<title>y</title>
<ellipse fill="none" stroke="#000000" cx="27" cy="-18" rx="27" ry="18"/>
<text text-anchor="middle" x="27" y="-13.8" font-family="Times,serif" font-size="14.00" fill="#000000">y</text>
</g>
<!-- x1&#45;&gt;y -->
<g id="edge1" class="edge">
<title>x1&#45;&gt;y</title>
<path fill="none" stroke="#000000" d="M24.8699,-177.5899C23.2916,-163.2998 21.2765,-142.8034 20.4448,-124.8 19.7065,-108.817 19.7065,-104.783 20.4448,-88.8 21.0945,-74.7349 22.4666,-59.1481 23.7884,-46.1878"/>
<polygon fill="#000000" stroke="#000000" points="27.2935,-46.3239 24.8699,-36.0101 20.3327,-45.5842 27.2935,-46.3239"/>
<text text-anchor="middle" x="41.2776" y="-102.6" font-family="Times,serif" font-size="14.00" fill="#000000">ß1 = 1</text>
</g>
<!-- x2 -->
<g id="node3" class="node">
<title>x2</title>
<ellipse fill="none" stroke="#000000" cx="97" cy="-106.8" rx="27" ry="18"/>
<text text-anchor="middle" x="97" y="-102.6" font-family="Times,serif" font-size="14.00" fill="#000000">x2</text>
</g>
<!-- x1&#45;&gt;x2 -->
<g id="edge2" class="edge">
<title>x1&#45;&gt;x2</title>
<path fill="none" stroke="#000000" d="M39.8391,-179.3127C50.4959,-165.7938 65.809,-146.368 77.904,-131.0247"/>
<polygon fill="#000000" stroke="#000000" points="80.8003,-133.0042 84.2423,-122.984 75.3029,-128.6706 80.8003,-133.0042"/>
<text text-anchor="middle" x="72.9473" y="-147" font-family="Times,serif" font-size="14.00" fill="#000000">+</text>
</g>
<!-- x2&#45;&gt;y -->
<g id="edge3" class="edge">
<title>x2&#45;&gt;y</title>
<path fill="none" stroke="#000000" d="M84.1609,-90.5127C73.5041,-76.9938 58.191,-57.568 46.096,-42.2247"/>
<polygon fill="#000000" stroke="#000000" points="48.6971,-39.8706 39.7577,-34.184 43.1997,-44.2042 48.6971,-39.8706"/>
<text text-anchor="middle" x="89.2776" y="-58.2" font-family="Times,serif" font-size="14.00" fill="#000000">ß2 = 1</text>
</g>
</g>
</svg>

