<?xml version="1.0" encoding="UTF-8" standalone="no"?>
<!DOCTYPE svg PUBLIC "-//W3C//DTD SVG 1.1//EN"
 "http://www.w3.org/Graphics/SVG/1.1/DTD/svg11.dtd">
<!-- Generated by graphviz version 2.40.1 (20161225.0304)
 -->
<!-- Title: G Pages: 1 -->
<svg width="142pt" height="222pt"
 viewBox="0.00 0.00 142.00 221.60" xmlns="http://www.w3.org/2000/svg" xmlns:xlink="http://www.w3.org/1999/xlink">
<g id="graph0" class="graph" transform="scale(1 1) rotate(0) translate(4 217.6)">
<title>G</title>
<polygon fill="#ffffff" stroke="transparent" points="-4,4 -4,-217.6 138,-217.6 138,4 -4,4"/>
<!-- x1 -->
<g id="node1" class="node">
<title>x1</title>
<ellipse fill="none" stroke="#000000" cx="27" cy="-195.6" rx="27" ry="18"/>
<text text-anchor="middle" x="27" y="-191.4" font-family="Times,serif" font-size="14.00" fill="#000000">x1</text>
</g>
<!-- y -->
<g id="node2" class="node">
<title>y</title>
<ellipse fill="none" stroke="#000000" cx="34" cy="-18" rx="27" ry="18"/>
<text text-anchor="middle" x="34" y="-13.8" font-family="Times,serif" font-size="14.00" fill="#000000">y</text>
</g>
<!-- x1&#45;&gt;y -->
<g id="edge1" class="edge">
<title>x1&#45;&gt;y</title>
<path fill="none" stroke="#000000" d="M26.4368,-177.4453C25.9055,-156.1841 25.3985,-119.9116 26.9448,-88.8 27.6442,-74.7277 29.121,-59.1402 30.5435,-46.1813"/>
<polygon fill="#000000" stroke="#000000" points="34.0483,-46.338 31.7075,-36.005 27.0937,-45.5425 34.0483,-46.338"/>
<text text-anchor="middle" x="49.0276" y="-102.6" font-family="Times,serif" font-size="14.00" fill="#000000">ß1 = 1</text>
</g>
<!-- x2 -->
<g id="node3" class="node">
<title>x2</title>
<ellipse fill="none" stroke="#000000" cx="107" cy="-106.8" rx="27" ry="18"/>
<text text-anchor="middle" x="107" y="-102.6" font-family="Times,serif" font-size="14.00" fill="#000000">x2</text>
</g>
<!-- x1&#45;&gt;x2 -->
<g id="edge2" class="edge">
<title>x1&#45;&gt;x2</title>
<path fill="none" stroke="#000000" d="M40.9349,-180.1322C53.3626,-166.3375 71.7358,-145.9432 85.9536,-130.1615"/>
<polygon fill="#000000" stroke="#000000" points="88.8633,-132.1608 92.9563,-122.3885 83.6626,-127.4754 88.8633,-132.1608"/>
<text text-anchor="middle" x="78.9473" y="-147" font-family="Times,serif" font-size="14.00" fill="#000000">+</text>
</g>
<!-- x2&#45;&gt;y -->
<g id="edge3" class="edge">
<title>x2&#45;&gt;y</title>
<path fill="none" stroke="#000000" d="M93.9491,-90.9243C82.807,-77.3707 66.6094,-57.6674 53.859,-42.1573"/>
<polygon fill="#000000" stroke="#000000" points="56.2382,-39.5398 47.1841,-34.0376 50.8308,-43.9851 56.2382,-39.5398"/>
<text text-anchor="middle" x="100.0276" y="-58.2" font-family="Times,serif" font-size="14.00" fill="#000000">ß2 = 1</text>
</g>
<!-- z -->
<g id="node4" class="node">
<title>z</title>
<ellipse fill="none" stroke="#000000" cx="107" cy="-195.6" rx="27" ry="18"/>
<text text-anchor="middle" x="107" y="-191.4" font-family="Times,serif" font-size="14.00" fill="#000000">z</text>
</g>
<!-- z&#45;&gt;x2 -->
<g id="edge4" class="edge">
<title>z&#45;&gt;x2</title>
<path fill="none" stroke="#000000" d="M107,-177.2006C107,-165.0949 107,-149.0076 107,-135.2674"/>
<polygon fill="#000000" stroke="#000000" points="110.5001,-134.872 107,-124.872 103.5001,-134.8721 110.5001,-134.872"/>
<text text-anchor="middle" x="110.9473" y="-147" font-family="Times,serif" font-size="14.00" fill="#000000">+</text>
</g>
</g>
</svg>

