<?xml version="1.0" encoding="UTF-8" standalone="no"?>
<!DOCTYPE svg PUBLIC "-//W3C//DTD SVG 1.1//EN"
 "http://www.w3.org/Graphics/SVG/1.1/DTD/svg11.dtd">
<!-- Generated by graphviz version 2.40.1 (20161225.0304)
 -->
<!-- Title: G Pages: 1 -->
<svg width="135pt" height="222pt"
 viewBox="0.00 0.00 135.00 221.60" xmlns="http://www.w3.org/2000/svg" xmlns:xlink="http://www.w3.org/1999/xlink">
<g id="graph0" class="graph" transform="scale(1 1) rotate(0) translate(4 217.6)">
<title>G</title>
<polygon fill="#ffffff" stroke="transparent" points="-4,4 -4,-217.6 131,-217.6 131,4 -4,4"/>
<!-- x1 -->
<g id="node1" class="node">
<title>x1</title>
<ellipse fill="none" stroke="#000000" cx="41" cy="-195.6" rx="27" ry="18"/>
<text text-anchor="middle" x="41" y="-191.4" font-family="Times,serif" font-size="14.00" fill="#000000">x1</text>
</g>
<!-- y -->
<g id="node2" class="node">
<title>y</title>
<ellipse fill="none" stroke="#000000" cx="27" cy="-18" rx="27" ry="18"/>
<text text-anchor="middle" x="27" y="-13.8" font-family="Times,serif" font-size="14.00" fill="#000000">y</text>
</g>
<!-- x1&#45;&gt;y -->
<g id="edge1" class="edge">
<title>x1&#45;&gt;y</title>
<path fill="none" stroke="#000000" d="M34.172,-177.8802C29.1105,-163.7501 22.6414,-143.3274 19.9448,-124.8 16.0755,-98.2152 18.8267,-67.5953 21.9546,-45.9768"/>
<polygon fill="#000000" stroke="#000000" points="25.4506,-46.2746 23.5422,-35.8531 18.5351,-45.1901 25.4506,-46.2746"/>
<text text-anchor="middle" x="42.0276" y="-102.6" font-family="Times,serif" font-size="14.00" fill="#000000">ß1 = 1</text>
</g>
<!-- x2 -->
<g id="node3" class="node">
<title>x2</title>
<ellipse fill="none" stroke="#000000" cx="100" cy="-106.8" rx="27" ry="18"/>
<text text-anchor="middle" x="100" y="-102.6" font-family="Times,serif" font-size="14.00" fill="#000000">x2</text>
</g>
<!-- x1&#45;&gt;x2 -->
<g id="edge2" class="edge">
<title>x1&#45;&gt;x2</title>
<path fill="none" stroke="#000000" d="M52.0974,-178.8974C60.9151,-165.626 73.3851,-146.8577 83.3916,-131.7971"/>
<polygon fill="#000000" stroke="#000000" points="86.3335,-133.6938 88.9523,-123.4277 80.5031,-129.82 86.3335,-133.6938"/>
<text text-anchor="middle" x="78.9473" y="-147" font-family="Times,serif" font-size="14.00" fill="#000000">+</text>
</g>
<!-- x2&#45;&gt;y -->
<g id="edge3" class="edge">
<title>x2&#45;&gt;y</title>
<path fill="none" stroke="#000000" d="M86.9491,-90.9243C75.807,-77.3707 59.6094,-57.6674 46.859,-42.1573"/>
<polygon fill="#000000" stroke="#000000" points="49.2382,-39.5398 40.1841,-34.0376 43.8308,-43.9851 49.2382,-39.5398"/>
<text text-anchor="middle" x="92.0276" y="-58.2" font-family="Times,serif" font-size="14.00" fill="#000000">ß2 = 1</text>
</g>
</g>
</svg>

