<?xml version="1.0" encoding="UTF-8" standalone="no"?>
<!DOCTYPE svg PUBLIC "-//W3C//DTD SVG 1.1//EN"
 "http://www.w3.org/Graphics/SVG/1.1/DTD/svg11.dtd">
<!-- Generated by graphviz version 2.40.1 (20161225.0304)
 -->
<!-- Title: G Pages: 1 -->
<svg width="143pt" height="222pt"
 viewBox="0.00 0.00 143.00 221.60" xmlns="http://www.w3.org/2000/svg" xmlns:xlink="http://www.w3.org/1999/xlink">
<g id="graph0" class="graph" transform="scale(1 1) rotate(0) translate(4 217.6)">
<title>G</title>
<polygon fill="#ffffff" stroke="transparent" points="-4,4 -4,-217.6 139,-217.6 139,4 -4,4"/>
<!-- x1 -->
<g id="node1" class="node">
<title>x1</title>
<ellipse fill="none" stroke="#000000" cx="43" cy="-195.6" rx="27" ry="18"/>
<text text-anchor="middle" x="43" y="-191.4" font-family="Times,serif" font-size="14.00" fill="#000000">x1</text>
</g>
<!-- y -->
<g id="node2" class="node">
<title>y</title>
<ellipse fill="none" stroke="#000000" cx="27" cy="-18" rx="27" ry="18"/>
<text text-anchor="middle" x="27" y="-13.8" font-family="Times,serif" font-size="14.00" fill="#000000">y</text>
</g>
<!-- x1&#45;&gt;y -->
<g id="edge1" class="edge">
<title>x1&#45;&gt;y</title>
<path fill="none" stroke="#000000" d="M35.5897,-178.2364C29.9946,-164.1346 22.7854,-143.5771 19.7856,-124.8 15.547,-98.2689 18.3968,-67.6421 21.6805,-46.0073"/>
<polygon fill="#000000" stroke="#000000" points="25.1776,-46.3108 23.35,-35.8748 18.2707,-45.1728 25.1776,-46.3108"/>
<text text-anchor="middle" x="46.1072" y="-102.6" font-family="Times,serif" font-size="14.00" fill="#000000">beta1 = 1</text>
</g>
<!-- x2 -->
<g id="node3" class="node">
<title>x2</title>
<ellipse fill="none" stroke="#000000" cx="108" cy="-106.8" rx="27" ry="18"/>
<text text-anchor="middle" x="108" y="-102.6" font-family="Times,serif" font-size="14.00" fill="#000000">x2</text>
</g>
<!-- x1&#45;&gt;x2 -->
<g id="edge2" class="edge">
<title>x1&#45;&gt;x2</title>
<path fill="none" stroke="#000000" d="M54.922,-179.3127C64.726,-165.919 78.774,-146.7272 89.9553,-131.4519"/>
<polygon fill="#000000" stroke="#000000" points="93.0712,-133.1206 96.1536,-122.984 87.4228,-128.986 93.0712,-133.1206"/>
<text text-anchor="middle" x="84.9473" y="-147" font-family="Times,serif" font-size="14.00" fill="#000000">+</text>
</g>
<!-- x2&#45;&gt;y -->
<g id="edge3" class="edge">
<title>x2&#45;&gt;y</title>
<path fill="none" stroke="#000000" d="M93.8909,-91.3322C81.3079,-77.5375 62.705,-57.1432 48.3095,-41.3615"/>
<polygon fill="#000000" stroke="#000000" points="50.5442,-38.6179 41.2192,-33.5885 45.3725,-43.3353 50.5442,-38.6179"/>
<text text-anchor="middle" x="100.1072" y="-58.2" font-family="Times,serif" font-size="14.00" fill="#000000">beta2 = 1</text>
</g>
</g>
</svg>

