<?xml version="1.0" encoding="UTF-8" standalone="no"?>
<!DOCTYPE svg PUBLIC "-//W3C//DTD SVG 1.1//EN"
 "http://www.w3.org/Graphics/SVG/1.1/DTD/svg11.dtd">
<!-- Generated by graphviz version 2.40.1 (20161225.0304)
 -->
<!-- Title: G Pages: 1 -->
<svg width="141pt" height="222pt"
 viewBox="0.00 0.00 141.00 221.60" xmlns="http://www.w3.org/2000/svg" xmlns:xlink="http://www.w3.org/1999/xlink">
<g id="graph0" class="graph" transform="scale(1 1) rotate(0) translate(4 217.6)">
<title>G</title>
<polygon fill="#ffffff" stroke="transparent" points="-4,4 -4,-217.6 137,-217.6 137,4 -4,4"/>
<!-- x1 -->
<g id="node1" class="node">
<title>x1</title>
<ellipse fill="none" stroke="#000000" cx="27" cy="-195.6" rx="27" ry="18"/>
<text text-anchor="middle" x="27" y="-191.4" font-family="Times,serif" font-size="14.00" fill="#000000">x1</text>
</g>
<!-- y -->
<g id="node2" class="node">
<title>y</title>
<ellipse fill="none" stroke="#000000" cx="36" cy="-18" rx="27" ry="18"/>
<text text-anchor="middle" x="36" y="-13.8" font-family="Times,serif" font-size="14.00" fill="#000000">y</text>
</g>
<!-- x1&#45;&gt;y -->
<g id="edge1" class="edge">
<title>x1&#45;&gt;y</title>
<path fill="none" stroke="#000000" d="M27.0321,-177.4434C27.1586,-156.1806 27.6509,-119.9065 29.4448,-88.8 30.2555,-74.7432 31.6451,-59.1573 32.9368,-46.1955"/>
<polygon fill="#000000" stroke="#000000" points="36.4422,-46.3217 33.984,-36.016 29.4789,-45.6053 36.4422,-46.3217"/>
<text text-anchor="middle" x="50.2776" y="-102.6" font-family="Times,serif" font-size="14.00" fill="#000000">ß1 = 1</text>
</g>
<!-- x2 -->
<g id="node3" class="node">
<title>x2</title>
<ellipse fill="none" stroke="#000000" cx="106" cy="-106.8" rx="27" ry="18"/>
<text text-anchor="middle" x="106" y="-102.6" font-family="Times,serif" font-size="14.00" fill="#000000">x2</text>
</g>
<!-- x1&#45;&gt;x2 -->
<g id="edge2" class="edge">
<title>x1&#45;&gt;x2</title>
<path fill="none" stroke="#000000" d="M41.1236,-179.7243C53.3687,-165.9603 71.256,-145.854 85.1488,-130.2378"/>
<polygon fill="#000000" stroke="#000000" points="87.9668,-132.3359 91.9987,-122.5382 82.7369,-127.6832 87.9668,-132.3359"/>
<text text-anchor="middle" x="77.9473" y="-147" font-family="Times,serif" font-size="14.00" fill="#000000">+</text>
</g>
<!-- x2&#45;&gt;y -->
<g id="edge3" class="edge">
<title>x2&#45;&gt;y</title>
<path fill="none" stroke="#000000" d="M93.1609,-90.5127C82.5041,-76.9938 67.191,-57.568 55.096,-42.2247"/>
<polygon fill="#000000" stroke="#000000" points="57.6971,-39.8706 48.7577,-34.184 52.1997,-44.2042 57.6971,-39.8706"/>
<text text-anchor="middle" x="98.2776" y="-58.2" font-family="Times,serif" font-size="14.00" fill="#000000">ß2 = 1</text>
</g>
<!-- z -->
<g id="node4" class="node">
<title>z</title>
<ellipse fill="none" stroke="#000000" cx="106" cy="-195.6" rx="27" ry="18"/>
<text text-anchor="middle" x="106" y="-191.4" font-family="Times,serif" font-size="14.00" fill="#000000">z</text>
</g>
<!-- z&#45;&gt;x2 -->
<g id="edge4" class="edge">
<title>z&#45;&gt;x2</title>
<path fill="none" stroke="#000000" d="M106,-177.2006C106,-165.0949 106,-149.0076 106,-135.2674"/>
<polygon fill="#000000" stroke="#000000" points="109.5001,-134.872 106,-124.872 102.5001,-134.8721 109.5001,-134.872"/>
<text text-anchor="middle" x="109.9473" y="-147" font-family="Times,serif" font-size="14.00" fill="#000000">+</text>
</g>
</g>
</svg>

