<?xml version="1.0" encoding="UTF-8" standalone="no"?>
<!DOCTYPE svg PUBLIC "-//W3C//DTD SVG 1.1//EN"
 "http://www.w3.org/Graphics/SVG/1.1/DTD/svg11.dtd">
<!-- Generated by graphviz version 2.40.1 (20161225.0304)
 -->
<!-- Title: G Pages: 1 -->
<svg width="180pt" height="182pt"
 viewBox="0.00 0.00 180.21 181.60" xmlns="http://www.w3.org/2000/svg" xmlns:xlink="http://www.w3.org/1999/xlink">
<g id="graph0" class="graph" transform="scale(1 1) rotate(0) translate(4 177.6)">
<title>G</title>
<polygon fill="#ffffff" stroke="transparent" points="-4,4 -4,-177.6 176.2104,-177.6 176.2104,4 -4,4"/>
<!-- x -->
<g id="node1" class="node">
<title>x</title>
<ellipse fill="none" stroke="#000000" cx="27" cy="-86.8" rx="27" ry="18"/>
<text text-anchor="middle" x="27" y="-82.6" font-family="Times,serif" font-size="14.00" fill="#000000">x</text>
</g>
<!-- y -->
<g id="node2" class="node">
<title>y</title>
<ellipse fill="none" stroke="#000000" cx="112" cy="-18" rx="27" ry="18"/>
<text text-anchor="middle" x="112" y="-13.8" font-family="Times,serif" font-size="14.00" fill="#000000">y</text>
</g>
<!-- x&#45;&gt;y -->
<g id="edge2" class="edge">
<title>x&#45;&gt;y</title>
<path fill="none" stroke="#000000" d="M44.201,-72.8773C56.4135,-62.9924 73.0079,-49.5607 86.7224,-38.46"/>
<polygon fill="#000000" stroke="#000000" points="89.2537,-40.914 94.8246,-31.902 84.8496,-35.473 89.2537,-40.914"/>
<text text-anchor="middle" x="90.6599" y="-48.2" font-family="Times,serif" font-size="14.00" fill="#000000">beta</text>
</g>
<!-- z -->
<g id="node3" class="node">
<title>z</title>
<ellipse fill="none" stroke="#000000" cx="113" cy="-155.6" rx="27" ry="18"/>
<text text-anchor="middle" x="113" y="-151.4" font-family="Times,serif" font-size="14.00" fill="#000000">z</text>
</g>
<!-- z&#45;&gt;x -->
<g id="edge1" class="edge">
<title>z&#45;&gt;x</title>
<path fill="none" stroke="#000000" d="M95.5966,-141.6773C83.2405,-131.7924 66.4509,-118.3607 52.575,-107.26"/>
<polygon fill="#000000" stroke="#000000" points="54.3727,-104.2159 44.3775,-100.702 49.9998,-109.682 54.3727,-104.2159"/>
<text text-anchor="middle" x="95.1599" y="-117" font-family="Times,serif" font-size="14.00" fill="#000000">alpha</text>
</g>
<!-- z&#45;&gt;y -->
<g id="edge3" class="edge">
<title>z&#45;&gt;y</title>
<path fill="none" stroke="#000000" d="M124.2005,-139.0991C125.7685,-136.0575 127.1373,-132.8217 128,-129.6 135.5516,-101.3991 128.8719,-68.1752 121.9808,-45.355"/>
<polygon fill="#000000" stroke="#000000" points="125.2532,-44.0986 118.8502,-35.6575 118.5917,-46.2492 125.2532,-44.0986"/>
<text text-anchor="middle" x="151.6052" y="-82.6" font-family="Times,serif" font-size="14.00" fill="#000000">gamma</text>
</g>
</g>
</svg>

